<svg xmlns="http://www.w3.org/2000/svg" width="70" height="70" viewBox="0 0 70 70"><defs><style>.a{fill:#fff;}.b{fill:#292075;}</style></defs><g transform="translate(-20 -1630)"><circle class="a" cx="35" cy="35" r="35" transform="translate(20 1630)"/><g transform="translate(36.717 1644.122)"><path class="b" d="M35.91,24.823,29.2,22.4a3.16,3.16,0,0,1-1.8-1.73c2.975-2.767,4.774-7.956,4.774-11.277h0a8.994,8.994,0,1,0-17.988,0h0A18.113,18.113,0,0,0,18.96,20.671a3.382,3.382,0,0,1-1.8,1.73L10.45,24.823A9.11,9.11,0,0,0,4.5,33.263v10.1H41.86v-10.1A9.11,9.11,0,0,0,35.91,24.823ZM23.18,1.853a7.617,7.617,0,0,1,7.057,4.774L27.4,8.426l-7.68-3.874L16.192,6.558A7.493,7.493,0,0,1,23.18,1.853Zm-7.61,7.61a5.236,5.236,0,0,1,.069-1.038l4.082-2.352L27.4,9.948l3.183-2.006a10.363,10.363,0,0,1,.138,1.522c0,4.428-3.528,11.762-7.61,11.762C19.1,21.225,15.57,13.891,15.57,9.463ZM20.136,21.64a5.473,5.473,0,0,0,3.044.969,5.306,5.306,0,0,0,3.044-.969,5.092,5.092,0,0,0,2.421,2.076l-2.767,6.573-1.66-4.843h1.038V24.061H21.1v1.384h1.038l-1.66,4.843-2.767-6.573A5.092,5.092,0,0,0,20.136,21.64Zm4.981,10.516L23.18,36.722l-1.937-4.566,1.937-5.6Zm15.359,9.824H34.942V36.446H33.558v5.535H12.8V36.446H11.419v5.535H5.884V33.263a7.683,7.683,0,0,1,5.051-7.2L16.4,24.131l6.78,16.12,6.78-16.12,5.466,1.937a7.616,7.616,0,0,1,5.051,7.2Z" transform="translate(-4.5 -0.4)"/></g></g></svg>