<svg xmlns="http://www.w3.org/2000/svg" width="70" height="70" viewBox="0 0 70 70"><defs><style>.a{fill:#fff;}.b{fill:#292075;}</style></defs><g transform="translate(-1018 -2037)"><circle class="a" cx="35" cy="35" r="35" transform="translate(1018 2037)"/><g transform="translate(1035.5 2054.5)"><path class="b" d="M7.429,39.6H36.338a3.433,3.433,0,0,0,3.429-3.433V17.806a.972.972,0,0,0-.346-.743L34.635,13.02V5.971A2.721,2.721,0,0,0,31.914,3.25H12.044A2.721,2.721,0,0,0,9.322,5.971v6.9L4.346,17.063A.972.972,0,0,0,4,17.806V36.163A3.433,3.433,0,0,0,7.429,39.6Zm28.905-1.944H7.429a1.489,1.489,0,0,1-1.485-1.489V19.66L17.024,27.5,9.159,33.516a.972.972,0,1,0,1.166,1.555l8.362-6.4,2.721,1.944a.972.972,0,0,0,1.124,0l2.721-1.944,8.366,6.387A.972.972,0,0,0,34.787,33.5L26.937,27.5l10.886-7.7V36.167a1.489,1.489,0,0,1-1.485,1.485ZM37.279,17.8l-2.644,1.87V15.562ZM12.044,5.2H31.918a.778.778,0,0,1,.778.778V21.036L21.981,28.621,11.27,21.036V5.971A.778.778,0,0,1,12.044,5.2ZM9.322,19.672,6.57,17.728,9.322,15.4Zm12.561,3.958h.249a.972.972,0,1,0,0-1.944h-.249a6.2,6.2,0,1,1,6.2-6.2v1.66a1.085,1.085,0,0,1-2.165,0v-1.66a4.043,4.043,0,1,0-1.555,3.161,3.025,3.025,0,0,0,5.664-1.5v-1.66a8.141,8.141,0,1,0-8.141,8.141Zm0-6.053a2.088,2.088,0,1,1,2.088-2.088,2.088,2.088,0,0,1-2.088,2.088Z" transform="translate(-4 -3.25)"/></g></g></svg>