<svg xmlns="http://www.w3.org/2000/svg" width="37.204" height="47.234" viewBox="0 0 37.204 47.234"><defs><style>.a{fill:#fce200;}.b{fill:#f4bf2f;}.c{fill:#864e20;}.d{fill:none;stroke:#864e20;stroke-linecap:round;}.e{fill:#45413c;opacity:0.296;}</style></defs><g transform="translate(0 0)"><rect class="a" width="37.204" height="37.204" rx="8"/><path class="b" d="M37.892,13.938a24.842,24.842,0,0,1-20.98,11.045c-9.372,0-11.1-1.691-15.46-4.277a12.954,12.954,0,0,0,12.183,8.557h11.31A12.947,12.947,0,0,0,37.892,16.316Z" transform="translate(-0.688 7.941)"/><g transform="translate(7.085 9.896)"><path class="c" d="M25.439,24.5a2.553,2.553,0,1,1-2.549-2.687A2.627,2.627,0,0,1,25.439,24.5Zm17.935,0a2.553,2.553,0,1,1-2.549-2.687A2.627,2.627,0,0,1,43.374,24.5Z" transform="translate(-20.34 -21.81)"/></g><line class="d" x2="15.22" transform="translate(10.992 24.521)"/></g><ellipse class="e" cx="18.602" cy="1.744" rx="18.602" ry="1.744" transform="translate(0 43.747)"/></svg>