<svg xmlns="http://www.w3.org/2000/svg" xmlns:xlink="http://www.w3.org/1999/xlink" width="698" height="627.518" viewBox="0 0 698 627.518"><defs><style>.a{fill:url(#a);}.aq,.ar,.b,.bb,.bg,.bq,.bu{fill:none;}.c{fill:#00b3ee;}.d{clip-path:url(#b);}.e{fill:#93d500;}.f{fill:#007e40;}.g{fill:#02961e;}.h{fill:#9bdef4;}.i{fill:url(#c);}.j{fill:url(#d);}.k{fill:url(#e);}.ac,.ad,.ae,.af,.ag,.ah,.ai,.l,.n,.p,.w,.y{opacity:0.37;}.ab,.ac,.ad,.ae,.af,.ag,.ah,.ai,.ak,.ao,.ap,.au,.aw,.ba,.bk,.bl,.bn,.bo,.bs,.l,.n,.p,.w,.y{mix-blend-mode:multiply;isolation:isolate;}.l{fill:url(#f);}.m{fill:url(#g);}.n{fill:url(#h);}.o{fill:url(#i);}.p{fill:url(#j);}.q{fill:url(#k);}.r{fill:url(#q);}.s{fill:url(#s);}.t{fill:url(#u);}.u{fill:#785c58;}.v{fill:url(#w);}.w{fill:url(#x);}.x{fill:url(#y);}.y{fill:url(#z);}.z{fill:url(#aa);}.aa{fill:url(#ab);}.ac{fill:url(#ad);}.ad{fill:url(#ae);}.ae{fill:url(#af);}.af{fill:url(#ag);}.ag{fill:url(#ah);}.ah{fill:url(#ai);}.ai{fill:url(#aj);}.aj{fill:#feb28d;}.ak{fill:url(#ak);}.al{fill:#f9f9f9;}.am{fill:#d1dae6;}.an{fill:#d6a183;}.ao{fill:url(#al);}.ap{fill:url(#am);}.aq{stroke:#ee7393;}.aq,.ar,.bq{stroke-linecap:round;stroke-linejoin:round;}.ar{stroke:#15252c;}.as{fill:#15252c;}.at{fill:#34352f;}.au{fill:url(#an);}.av{fill:url(#ao);}.aw{fill:url(#ap);}.ax{fill:url(#aq);}.ay{fill:url(#ar);}.az{fill:#f4e6dd;}.ba{fill:url(#as);}.bb{stroke:#d69677;stroke-width:0.5px;}.bb,.bg,.bu{stroke-miterlimit:10;}.bc{fill:#e1d9de;}.bd{fill:url(#au);}.be{fill:#42271e;}.bf{fill:url(#av);}.bg{stroke:#42271e;stroke-width:1.031px;}.bh{fill:url(#aw);}.bi{fill:url(#ay);}.bj{fill:url(#az);}.bk{fill:url(#ba);}.bl{fill:url(#bb);}.bm{fill:#701e21;}.bn{fill:url(#bc);}.bo{fill:url(#bd);}.bp{fill:#fff;opacity:0.18;}.bq{stroke:#231f20;}.br{fill:#bf4d51;}.bs{fill:url(#be);}.bt{fill:#fff4fa;}.bu{stroke:#fff4fa;stroke-width:2.921px;}.bv{clip-path:url(#bf);}.bw{fill:url(#bg);}.bx{fill:url(#bh);}</style><linearGradient id="a" x1="0.284" y1="-0.071" x2="0.5" y2="1" gradientUnits="objectBoundingBox"><stop offset="0" stop-color="#67d9ff"/><stop offset="0.448" stop-color="#00b3ee"/><stop offset="1" stop-color="#00abe3"/></linearGradient><clipPath id="b"><path class="a" d="M244.316,6.7c172.347-71.586,491.336,204.68,433.361,414.957S463.053,638.069,244.316,611.63-75.573,435.926,26.631,310.193,71.969,78.29,244.316,6.7Z" transform="translate(13.376 4.843)"/></clipPath><linearGradient id="c" x1="0.5" y1="1" x2="0.5" gradientUnits="objectBoundingBox"><stop offset="0" stop-color="#007dc6"/><stop offset="1" stop-color="#00bef5"/></linearGradient><linearGradient id="d" x1="0.487" y1="0.497" x2="0.699" y2="1.036" gradientUnits="objectBoundingBox"><stop offset="0" stop-color="#ff9cb0"/><stop offset="0.064" stop-color="#fd8da4"/><stop offset="0.242" stop-color="#f96b89"/><stop offset="0.424" stop-color="#f65173"/><stop offset="0.608" stop-color="#f43e64"/><stop offset="0.798" stop-color="#f3325b"/><stop offset="1" stop-color="#f32f58"/></linearGradient><linearGradient id="e" x1="-0.994" y1="1.085" x2="8.62" y2="-2.678" gradientUnits="objectBoundingBox"><stop offset="0" stop-color="#d9968b"/><stop offset="0.653" stop-color="#f4bca6"/><stop offset="1" stop-color="#ffcbb1"/></linearGradient><linearGradient id="f" x1="0.517" y1="0.444" x2="2.507" y2="-6.239" gradientUnits="objectBoundingBox"><stop offset="0" stop-color="#c78b83"/><stop offset="0.161" stop-color="#c78d85" stop-opacity="0.98"/><stop offset="0.304" stop-color="#cb938b" stop-opacity="0.929"/><stop offset="0.441" stop-color="#d09d97" stop-opacity="0.835"/><stop offset="0.573" stop-color="#d7aca7" stop-opacity="0.706"/><stop offset="0.702" stop-color="#e0c0bb" stop-opacity="0.541"/><stop offset="0.83" stop-color="#ecd7d5" stop-opacity="0.337"/><stop offset="0.953" stop-color="#f9f3f2" stop-opacity="0.102"/><stop offset="1" stop-color="#fff" stop-opacity="0"/></linearGradient><linearGradient id="g" x1="-4.092" y1="2.297" x2="5.522" y2="-1.465" xlink:href="#e"/><linearGradient id="h" x1="0.522" y1="-0.395" x2="0.42" y2="3.678" xlink:href="#f"/><linearGradient id="i" x1="-6.566" y1="1.657" x2="11.202" y2="-1.252" xlink:href="#e"/><linearGradient id="j" x1="0.5" x2="0.5" y2="1" gradientUnits="objectBoundingBox"><stop offset="0" stop-color="#d9988f"/><stop offset="0.155" stop-color="#d99990" stop-opacity="0.984"/><stop offset="0.292" stop-color="#db9e96" stop-opacity="0.933"/><stop offset="0.424" stop-color="#dea79f" stop-opacity="0.851"/><stop offset="0.551" stop-color="#e3b3ad" stop-opacity="0.733"/><stop offset="0.676" stop-color="#e8c3be" stop-opacity="0.58"/><stop offset="0.798" stop-color="#f0d6d3" stop-opacity="0.392"/><stop offset="0.916" stop-color="#f8eceb" stop-opacity="0.176"/><stop offset="1" stop-color="#fff" stop-opacity="0"/></linearGradient><linearGradient id="k" x1="-13.236" y1="2.75" x2="4.521" y2="-0.159" xlink:href="#e"/><linearGradient id="q" x1="0.209" y1="10.294" x2="0.634" y2="-4.006" xlink:href="#e"/><linearGradient id="s" x1="0.239" y1="9.267" x2="0.665" y2="-5.033" xlink:href="#e"/><linearGradient id="u" x1="0.27" y1="8.245" x2="0.695" y2="-6.06" xlink:href="#e"/><linearGradient id="w" x1="-0.516" y1="0.862" x2="8.744" y2="-2.442" xlink:href="#e"/><linearGradient id="x" x1="0.699" y1="-0.193" x2="2.616" y2="-6.88" xlink:href="#f"/><linearGradient id="y" x1="-4.069" y1="2.13" x2="5.191" y2="-1.174" xlink:href="#e"/><linearGradient id="z" x1="0.52" y1="-0.335" x2="0.422" y2="3.741" xlink:href="#f"/><linearGradient id="aa" x1="0.317" y1="15.111" x2="0.725" y2="-16.323" gradientUnits="objectBoundingBox"><stop offset="0" stop-color="#e8aea5"/><stop offset="0.57" stop-color="#f6c8b8"/><stop offset="1" stop-color="#ffd7c3"/></linearGradient><linearGradient id="ab" x1="0.324" y1="10.22" x2="0.733" y2="-12.335" xlink:href="#e"/><linearGradient id="ad" x1="0.24" y1="6.181" x2="0.798" y2="-6.58" xlink:href="#f"/><linearGradient id="ae" x1="0.264" y1="3.549" x2="0.796" y2="-3.194" xlink:href="#f"/><linearGradient id="af" x1="0.249" y1="3.528" x2="0.795" y2="-3.154" xlink:href="#f"/><linearGradient id="ag" x1="-0.059" y1="7.259" x2="0.968" y2="-4.548" xlink:href="#f"/><linearGradient id="ah" x1="0.169" y1="4.704" x2="1.11" y2="-7.103" xlink:href="#f"/><linearGradient id="ai" x1="0.134" y1="4.265" x2="1.138" y2="-5.272" xlink:href="#f"/><linearGradient id="aj" x1="-0.048" y1="5.302" x2="1.044" y2="-4.236" xlink:href="#f"/><linearGradient id="ak" x1="0.188" y1="0.065" x2="0.506" y2="0.661" xlink:href="#j"/><linearGradient id="al" x1="0.598" y1="-0.015" x2="0.532" y2="0.383" xlink:href="#j"/><linearGradient id="am" x1="0" y1="0.5" x2="1" y2="0.5" xlink:href="#j"/><linearGradient id="an" x1="0.658" y1="0.622" x2="0.958" y2="0.905" xlink:href="#j"/><linearGradient id="ao" x1="0.57" y1="0.528" x2="-0.128" y2="0.286" gradientUnits="objectBoundingBox"><stop offset="0" stop-color="#21235d"/><stop offset="1" stop-color="#1c6785"/></linearGradient><linearGradient id="ap" x1="0.507" y1="0.518" x2="0.283" y2="0.882" xlink:href="#j"/><linearGradient id="aq" x1="0.949" y1="0.774" x2="0.158" y2="-0.034" xlink:href="#ao"/><linearGradient id="ar" x1="0" y1="0.5" x2="1" y2="0.5" xlink:href="#d"/><linearGradient id="as" x1="1.028" y1="-0.068" x2="0.519" y2="0.464" xlink:href="#j"/><linearGradient id="au" y1="0.5" x2="1" y2="0.5" gradientUnits="objectBoundingBox"><stop offset="0" stop-color="#a3bbc3"/><stop offset="0.162" stop-color="#a4bcc4" stop-opacity="0.98"/><stop offset="0.307" stop-color="#a9c0c7" stop-opacity="0.925"/><stop offset="0.445" stop-color="#b2c6cd" stop-opacity="0.831"/><stop offset="0.578" stop-color="#becfd4" stop-opacity="0.702"/><stop offset="0.709" stop-color="#cedadf" stop-opacity="0.533"/><stop offset="0.837" stop-color="#e1e8eb" stop-opacity="0.325"/><stop offset="0.961" stop-color="#f7f9fa" stop-opacity="0.082"/><stop offset="1" stop-color="#fff" stop-opacity="0"/></linearGradient><linearGradient id="av" x1="0.5" y1="1" x2="0.5" gradientUnits="objectBoundingBox"><stop offset="0" stop-color="#472620"/><stop offset="1" stop-color="#5d3e1f"/></linearGradient><linearGradient id="aw" x1="0.943" y1="0.149" x2="0.388" y2="0.606" xlink:href="#au"/><linearGradient id="ay" x1="0.5" y1="0" x2="0.5" y2="1" xlink:href="#ao"/><linearGradient id="az" x1="2.215" y1="0" x2="2.215" y2="1" xlink:href="#ao"/><linearGradient id="ba" x1="0.188" y1="-0.131" x2="0.589" y2="0.688" xlink:href="#j"/><linearGradient id="bb" x1="0.477" y1="-0.176" x2="0.505" y2="0.65" xlink:href="#j"/><linearGradient id="bc" x1="0" y1="0.5" x2="1" y2="0.5" xlink:href="#j"/><linearGradient id="bd" x1="0" y1="0.5" x2="1" y2="0.5" xlink:href="#j"/><linearGradient id="be" x1="0.496" y1="0.109" x2="0.504" y2="0.434" gradientUnits="objectBoundingBox"><stop offset="0" stop-color="#b2bec3"/><stop offset="0.162" stop-color="#b3bfc4" stop-opacity="0.98"/><stop offset="0.307" stop-color="#b7c2c7" stop-opacity="0.925"/><stop offset="0.445" stop-color="#bec8cd" stop-opacity="0.831"/><stop offset="0.578" stop-color="#c8d1d4" stop-opacity="0.702"/><stop offset="0.709" stop-color="#d6dcdf" stop-opacity="0.533"/><stop offset="0.837" stop-color="#e6e9eb" stop-opacity="0.325"/><stop offset="0.961" stop-color="#f8f9fa" stop-opacity="0.082"/><stop offset="1" stop-color="#fff" stop-opacity="0"/></linearGradient><clipPath id="bf"><path class="b" d="M242.641,301.435s.211,5.562-.485,6.936-8.671,3.577-25.275,4.528c-16.588.939-56.672-.652-57.958-2.379s-1.184-5.943-2.157-6.977-1.573-22.036-2.607-35.281c-.89-11.247-.882-59.775,1.167-76.379.36-2.992,31.968-10.416,31.968-10.416s-3.635,21.974,12.147,25.923c11.294,2.826,23.308-5.887,18.27-26.15,0,0,22.31,6.624,25.126,8.329,4.285,2.6,1.829,5.7,3.647,23.637.212,2.067.689,5.821,1.259,10.58C248.713,231.823,245.677,297.532,242.641,301.435Z"/></clipPath><linearGradient id="bg" x1="0.395" y1="0.959" x2="0.567" y2="0.023" xlink:href="#c"/><linearGradient id="bh" x1="1.067" y1="0.58" x2="0.181" y2="0.348" xlink:href="#c"/></defs><g transform="translate(-237 -204)"><g transform="translate(212.376 115.728)"><path class="c" d="M244.316,6.88C416.663-64.707,735.652,211.432,677.677,421.709S463.053,638.117,244.316,611.678-75.573,435.974,26.631,310.241,71.969,78.466,244.316,6.88Z" transform="translate(38 93.068)"/><g class="d" transform="translate(24.624 88.272)"><g transform="matrix(0.999, -0.035, 0.035, 0.999, -155.392, 427.383)"><path class="e" d="M.007,37.093s389.494-83.382,820.928.164.05,247.114.05,247.114L.057,284.207Z" transform="translate(0 0)"/></g><g transform="translate(-22.693 53.623)"><g transform="translate(595.934 290.792)"><path class="f" d="M889.313.847c-33.8,11.044-45.3,143.829-45.3,143.829s-3.38-32.937-22.31-22.364c-15.218,8.5-18.639,39.935-19.4,51.94H908.919V7.085C903.118,1.25,896.574-1.526,889.313.847Z" transform="translate(-785.875 0.001)"/><path class="f" d="M783.544,223.98c-2.873,10.923,9.634,17.309,9.634,17.309C795.376,227.341,783.544,223.98,783.544,223.98Z" transform="translate(-779.657 -73.422)"/><path class="g" d="M778,249.285s3.549,4.658,10.31,1.849C788.31,251.134,786.37,246.449,778,249.285Z" transform="translate(-778 -81.418)"/><g transform="translate(16.739 0.007)"><g transform="translate(18.271)"><path class="g" d="M838.591,178.906a10.01,10.01,0,0,0-2.1.013c-3.15,11.985-8.3,35.411-6.227,53.97h2.075C830.214,213.988,835.819,189.446,838.591,178.906Z" transform="translate(-829.785 -58.637)"/><path class="g" d="M934.071.01a15.023,15.023,0,0,0-2.109.168c-9.567,43.155-6.821,135.8-5.166,174.078h2.029C927.168,135.894,924.383,42.546,934.071.01Z" transform="translate(-860.667 -0.01)"/></g><g transform="translate(0 5.539)"><path class="g" d="M938.98,14.629c-4.841,3.966-9.688,7.979-11.71,9.659L919.151,8.25q-.76.716-1.5,1.512l8.972,17.7.98-.82c5.516-4.6,13.176-10.916,18.686-15.346V9.8c-.2-.2-.406-.423-.609-.618C943.922,10.6,941.738,12.371,938.98,14.629Z" transform="translate(-839.977 -8.25)"/><path class="g" d="M831.627,194.019l-8.525-7.213c-.46.484-.9.995-1.332,1.526l9.817,8.308,12.629-10.164a18.211,18.211,0,0,0-1.224-1.607Z" transform="translate(-808.918 -66.147)"/><path class="g" d="M899.214,41.23c-.27.645-.541,1.3-.8,1.963l20.248,17.094.561-.222c.081-.034,8.275-3.22,16.361-6.419,1.643-.652,3.124-1.237,4.462-1.768V49.7c-6.422,2.568-14.522,5.747-21,8.268Z" transform="translate(-833.744 -19.061)"/><path class="g" d="M885.271,84.78c-.183.7-.358,1.4-.541,2.1l28.381,20.448L935.617,95.77V93.5l-22.324,11.468Z" transform="translate(-829.313 -33.337)"/><path class="g" d="M875.829,128.47c-.135.726-.264,1.445-.4,2.164l34.405,22.942,22.77-5.162v-2.07l-22.371,5.068Z" transform="translate(-826.3 -47.659)"/><path class="g" d="M865.44,199.82c-.095.86-.183,1.674-.27,2.44l42.89,37.058,21.222-5.841v-2.091l-20.715,5.7Z" transform="translate(-822.977 -71.048)"/><path class="g" d="M869.134,170.16q-.162,1.17-.324,2.319l39.611,31.17,22.039-10.4v-2.232L908.7,201.289Z" transform="translate(-824.156 -61.325)"/><path class="g" d="M802.956,250.18c-.075.706-.135,1.385-.2,2.037l15.346,4.053h3.955l.257-.975Z" transform="translate(-802.76 -87.556)"/><path class="g" d="M845.307,208.051l-21.215,15.7-14.623-12.738q-.324,1.059-.629,2.138l15.144,13.2,21.979-16.26a60.886,60.886,0,0,0-1.359-6.661Z" transform="translate(-804.729 -72.228)"/></g><path class="g" d="M855.675,234.64,832.04,250.1l.595,1.069h1.934l21.107-14.788Z" transform="translate(-812.245 -76.923)"/><path class="g" d="M865.17,236.569l1.237-.188,14.968,14.788h2.61L866.407,234.64Z" transform="translate(-822.977 -76.923)"/></g></g><g transform="translate(0 300.303)"><path class="f" d="M146.492,172.969c-29.3-6.372-39.37,6.676-39.37,6.676s2.747-31.862-3.662-32.608S82.1,176.307,82.1,176.307s-2.136-44-7.935-42.361-18.006,44.181-18.006,44.181S65.922,98.018,34.792,96.2C16.993,95.154,6.086,110.733,0,124.266V195.12H172.916C170.8,187.553,164.584,176.9,146.492,172.969Z" transform="translate(0 -96.148)"/><g transform="translate(0 0.025)"><path class="g" d="M161.858,180.02c-2.722,7.1-10.517,28.766-12.128,48.072H151.6c1.63-18.571,9.058-39.66,11.835-47.022A2.457,2.457,0,0,0,161.858,180.02Z" transform="translate(-58.337 -129.145)"/><path class="g" d="M181.625,211c11.9-1.972,9.919-15.02,9.919-15.02C179.183,198.863,181.625,211,181.625,211Z" transform="translate(-70.687 -135.419)"/><path class="g" d="M142.568,171.24c11.292-9.407,4.73-18.51,4.73-18.51C138.142,157.889,142.568,171.24,142.568,171.24Z" transform="translate(-55.13 -118.417)"/><path class="g" d="M132.428,167.98c-1.831,5.11,3.559,7.738,3.559,7.738C137.006,169.449,132.428,167.98,132.428,167.98Z" transform="translate(-51.448 -124.412)"/><path class="g" d="M195.33,214.605a7.921,7.921,0,0,0,8.747-2.931C198.895,210.054,195.33,214.605,195.33,214.605Z" transform="translate(-76.103 -141.451)"/><path class="g" d="M45.873,96.66C37.81,116.693,25,154.393,23.13,195.322h1.831c1.874-40.759,14.674-78.373,22.682-98.243A16.015,16.015,0,0,0,45.873,96.66Z" transform="translate(-9.012 -96.375)"/><path class="g" d="M116.805,158.4a1.834,1.834,0,0,0-.507.243c-.879,7.471-3.168,27.868-6.849,60.931h1.843c2.521-22.637,5.75-51.531,6.824-60.749A1.339,1.339,0,0,0,116.805,158.4Z" transform="translate(-42.643 -120.629)"/><path class="g" d="M114.22,189.648c-1.343-2.749-3.815-7.786-5.316-10.748-.3.74-.6,1.5-.9,2.276,1.489,2.98,3.577,7.222,5.066,10.287l.494,1.02,8.661-6.773c-.085-.7-.177-1.408-.269-2.106Z" transform="translate(-42.078 -128.704)"/><path class="g" d="M25.614,157.3,10.5,122.21c-.415.595-.824,1.19-1.221,1.8l15.5,35.988,34.847-22.3c-.1-.655-.2-1.311-.317-1.966Z" transform="translate(-3.616 -106.419)"/><path class="g" d="M40.91,127.7c-1.367-7.829-4.041-23.177-4.859-28.075-.586.249-1.154.516-1.721.8.848,5.1,3.089,17.964,5.036,29.076l.262,1.487,25.215-19.378c-.25-.583-.507-1.153-.775-1.705Z" transform="translate(-13.375 -97.542)"/><path class="g" d="M53.4,105.8,51.069,96.19c-.629.03-1.239.085-1.849.152l3.052,12.581L63.82,100.25c-.482-.419-.983-.8-1.5-1.159Z" transform="translate(-19.177 -96.19)"/><path class="g" d="M106.552,228.411l-9.638-14.966c-.25.783-.488,1.541-.714,2.27L106.369,231.5l12.818-15.506c-.055-.825-.122-1.705-.2-2.634Z" transform="translate(-37.481 -142.251)"/><path class="g" d="M56.992,214.423c.049-.7.1-1.438.14-2.2L15.2,237.1,0,226.931v2.2l15.144,10.123Z" transform="translate(0 -141.803)"/><path class="g" d="M57.608,185.363c0-.674,0-1.353-.006-2.039L17.634,203.406,0,181.57v2.907L17.134,205.7Z" transform="translate(0 -129.754)"/><g transform="translate(81.639 54.942)"><path class="g" d="M133.75,224.316l.391.765c-.024-.419-.055-.922-.085-1.511Z" transform="translate(-133.75 -201.206)"/><path class="g" d="M161.34,195.969c-.787-2.968-1.746-6.6-2.417-9.249-.476.552-.964,1.147-1.453,1.778.757,2.956,1.715,6.6,2.429,9.261l.336,1.1,8.527-5.85c-.061-.692-.128-1.366-.208-2.021Z" transform="translate(-142.992 -186.72)"/><path class="g" d="M143.415,210.45c-.342.595-.671,1.177-.995,1.748l8.063,11.118,12.592-6.8c.024-.686.049-1.4.067-2.124l-12.116,6.554Z" transform="translate(-137.128 -196.049)"/><path class="g" d="M159.717,227.947s.085-1,.189-2.634L145.3,240.352l-9.058-17.9,1.379-3.429c-1.251,2.312-2.185,4.127-2.631,5.007l9.815,19.4h.055l17-17.5A13.179,13.179,0,0,0,159.717,227.947Z" transform="translate(-134.233 -199.417)"/></g><path class="g" d="M271.564,250.11l-12.794,5.535h4.59l8.991-3.89C272.113,251.215,271.85,250.662,271.564,250.11Z" transform="translate(-100.821 -156.698)"/><path class="g" d="M184.68,226.143l10.175,19.76h2.057l-10.6-20.573C185.742,225.6,185.187,225.87,184.68,226.143Z" transform="translate(-71.954 -146.957)"/><path class="g" d="M224.37,220.59c-.617,2.919-1.917,9.316-4.73,23.45h1.868c1.77-8.867,3.8-18.983,4.676-23.207C225.573,220.742,224.963,220.657,224.37,220.59Z" transform="translate(-85.575 -145.093)"/><path class="g" d="M248.087,230.81,227.45,248.052h2.844L249.7,231.83C249.186,231.49,248.649,231.144,248.087,230.81Z" transform="translate(-88.618 -149.111)"/><path class="g" d="M102.964,246.307,92.448,227.882c-.348,1.171-.537,1.839-.537,1.839s.1-.837.25-2.33l-.391,3.138,9.785,16.186h5.481l8.857-5.055,5.512,5.055H124.6l-8.7-7.908Z" transform="translate(-35.755 -147.766)"/><path class="g" d="M157.82,254.579h4.639l5.951-4.145,4.01,4.145h2.912L168.9,247.4Z" transform="translate(-61.489 -155.633)"/><path class="g" d="M76.448,232.23H75.087L48.95,248.616h4.438L76.68,234.658Z" transform="translate(-19.072 -149.669)"/></g></g><path class="h" d="M114.554,62.846a20.419,20.419,0,0,0,.305-3.492,21.73,21.73,0,0,0-9.681-17.693,21.994,21.994,0,0,0-20.135-2.216A36.014,36.014,0,0,0,55.481,24C36.14,24,20.29,39.182,19.923,58.089a21.445,21.445,0,0,0,2.036,42.834h88.685a19.221,19.221,0,0,0,3.919-38.077Z" transform="translate(133.871 -24)"/><g transform="translate(603.638 142.943)"><path class="h" d="M82.666,26.289C81.274,15.906,72.224,7.6,61.782,7.6A20.873,20.873,0,0,0,41.593,23.52a8.875,8.875,0,0,0-4.177-.692,18,18,0,0,0-18.1,15.228h0C10.962,38.056,4,43.593,4,51.9s6.962,13.843,15.316,13.843H80.578c11.835,0,21.581-8.306,21.581-20.073C101.463,35.287,93.109,27.673,82.666,26.289Z" transform="translate(-4 -7.6)"/></g></g></g></g><g transform="translate(-1305 -6787)"><g transform="translate(1644 7065)"><path class="i" d="M349.652,234.488c-14.786.826-56.846.466-61.183-3.387-18.3-16.26-39.434-40.945-45.632-41.532l-8.77,34.32s31.293,26.649,46.648,30.3c15.69,3.736,53.707-.624,73.242-3.274C352.3,245.484,350.794,240.019,349.652,234.488Z"/><path class="j" d="M306.9,199.184c-6.425,3.8-8.39,3.855-17.854,13.744s-20.169,20.808-25.8,24.9-45.969-1.11-45.969-1.11l-8.98,17.637s46.57,7.41,54.949,6.321,10.224.1,17.465-6.482,32.909-28.259,32.909-28.259Z"/><rect class="k" width="14.925" height="79.001" transform="translate(117.229 352.348)"/><rect class="l" width="14.925" height="11.967" transform="translate(117.229 352.348)"/><rect class="m" width="14.925" height="79.001" transform="translate(361.847 352.348)"/><rect class="n" width="14.925" height="11.967" transform="translate(361.847 352.348)"/><rect class="o" width="8.075" height="102.2" transform="translate(100.297 242.12)"/><rect class="p" width="8.075" height="7.746" transform="translate(100.297 262.681)"/><rect class="q" width="8.081" height="102.206" transform="translate(385.626 242.115)"/><rect class="p" width="8.081" height="7.744" transform="translate(385.626 262.682)"/><rect class="p" width="8.075" height="7.746" transform="translate(100.297 289.793)"/><rect class="p" width="8.075" height="7.746" transform="translate(385.628 289.793)"/><rect class="p" width="8.075" height="7.746" transform="translate(100.297 316.733)"/><rect class="p" width="8.081" height="7.753" transform="translate(385.626 316.729)"/><rect class="r" width="337.442" height="20.785" transform="translate(78.279 246.447)"/><rect class="p" width="337.442" height="4.15" transform="translate(78.279 263.083)"/><rect class="s" width="337.442" height="20.785" transform="translate(78.279 272.775)"/><rect class="p" width="337.442" height="4.15" transform="translate(78.279 289.41)"/><rect class="t" width="337.442" height="20.776" transform="translate(78.279 299.029)"/><rect class="p" width="337.442" height="4.15" transform="translate(78.279 315.656)"/><path class="u" d="M106.007,255.958a1.6,1.6,0,1,1-1.6-1.6A1.6,1.6,0,0,1,106.007,255.958Z"/><path class="u" d="M391.268,255.958a1.6,1.6,0,1,1-1.6-1.6A1.6,1.6,0,0,1,391.268,255.958Z"/><path class="u" d="M106.007,282.283a1.6,1.6,0,1,1-1.6-1.6A1.6,1.6,0,0,1,106.007,282.283Z"/><path class="u" d="M391.268,282.283a1.6,1.6,0,1,1-1.6-1.6A1.6,1.6,0,0,1,391.268,282.283Z"/><path class="u" d="M106.007,308.533a1.6,1.6,0,1,1-1.6-1.6A1.6,1.6,0,0,1,106.007,308.533Z"/><path class="u" d="M391.268,308.533a1.6,1.6,0,1,1-1.6-1.6A1.6,1.6,0,0,1,391.268,308.533Z"/><rect class="v" width="15.495" height="89.959" transform="translate(93.594 352.351)"/><rect class="w" width="15.495" height="11.96" transform="translate(93.594 352.351)"/><rect class="x" width="15.495" height="89.959" transform="translate(384.911 352.351)"/><rect class="y" width="15.495" height="11.96" transform="translate(384.911 352.351)"/><path class="z" d="M422.556,343.321H71.444l9.319-9.455H413.237Z"/><rect class="aa" width="351.111" height="13.177" transform="translate(71.444 343.321)"/><rect class="p" width="351.111" height="4.15" transform="translate(71.444 352.348)"/><g class="ab"><path class="ac" d="M378.4,333.865H134.772a39.086,39.086,0,0,0,.459,22.212H368.372c2.269-3.011,4.8-5.814,7.077-8.847.188-.25.357-.513.537-.769.938-2.532,1.731-5.126,2.547-7.7C378.453,337.128,378.36,335.488,378.4,333.865Z"/><path class="ad" d="M252.2,251.272c-.747-1.565-1.68-3.174-2.56-4.825H128.786a38.719,38.719,0,0,0-.546,16.636,34.445,34.445,0,0,0,1.01,4.149H254.594C254.777,261.652,254.451,255.979,252.2,251.272Z"/><path class="ae" d="M131.334,272.774c1.338,3.34,2.584,6.689,2.375,10.239a20.491,20.491,0,0,1-1.656,6.4c-.113.28-.232.56-.348.84q.127,1.645.188,3.31h121.5c.016-5.483.315-10.982.614-16.412.078-1.407.183-2.874.285-4.374Z"/><path class="af" d="M381.979,315.159q1.551-8.019,2.347-16.13H287.19a44.9,44.9,0,0,1-7.808,10.105c-3.6,3.526-7.316,6.789-10.341,10.671H380.954C381.322,318.258,381.678,316.711,381.979,315.159Z"/><path class="ag" d="M132.047,304.173a138.18,138.18,0,0,1-1.1,15.632h125.96a74.881,74.881,0,0,1-3.428-20.776H132C132.014,300.748,132.019,302.466,132.047,304.173Z"/><path class="ah" d="M384.963,272.774H296.105a132.483,132.483,0,0,1-5.064,17.643c-.376,1.083-.779,2.123-1.2,3.143h94.95A175.16,175.16,0,0,0,384.963,272.774Z"/><path class="ai" d="M296.977,267.232H384.6a172.944,172.944,0,0,0-3.008-20.785H297.261c-.317,5.4.291,10.955.075,16.307C297.276,264.257,297.149,265.749,296.977,267.232Z"/></g><path class="aj" d="M311.627,196.783l10.955-4.474,2.332-16.569,13.121-3.512c0,1.588.75,15.886.915,19.027l.033,0,13.53,7.185a27.142,27.142,0,0,1-11.271,10.915c-9.888,5.125-18.076,4.4-22.743,0C313.06,204.228,311.627,196.783,311.627,196.783Z"/><path class="ak" d="M311.627,196.783l10.955-4.474,2.332-16.569,13.121-3.512c0,1.588.75,15.886.915,19.027l.033,0,13.53,7.185a27.142,27.142,0,0,1-11.271,10.915c-9.888,5.125-18.076,4.4-22.743,0C313.06,204.228,311.627,196.783,311.627,196.783Z"/><path class="al" d="M314.972,131.117c-5.182,3.188-10.385,5.815-10.177,13.291s4.274,16.416,4.274,16.416,7.149-15.169,10.056-20.362S314.972,131.117,314.972,131.117Z"/><path class="am" d="M314.052,150.441c-.352-.524-.707-1.047-1.042-1.582a59.687,59.687,0,0,1-3.088-5.575c-.073-.151-.648-1.406-.733-1.556-.4-.978-.766-1.974-1.1-2.973-.236-.7-.454-1.4-.663-2.105,1.955-2.247,4.752-3.811,7.551-5.533,0,0,7.061,4.153,4.153,9.345C317.9,142.647,315.928,146.6,314.052,150.441Z"/><path class="al" d="M343.006,132.989c1.058-11.118,12.706-12.971,20.647-7.676s8.042,18.636-.265,24.088c-8.471,5.559-17.735-3.706-17.735-3.706Z"/><path class="aj" d="M313.766,160.953c-.106-3.772-.515-7.476-4.1-8.267-4.128-.911-4.455,5.231-3.522,8.883s.635,6.285,3.433,6.707,3.821-2.667,3.821-2.667Z"/><path class="an" d="M308.26,156.247c1.617-.107,3.435,3.513,2.728,5.854s-2.728,2.236-2.728,1.6,1.718-1.49.809-2.874S308.26,156.247,308.26,156.247Z"/><path class="aj" d="M313.827,139.684c-6.711,9.646-4.926,12.7-6.7,17.756-2.079,5.923-4.632,17.566,4.937,25.806,9.052,7.795,20.561,6.022,28.868-.831,8.612-7.1,11.04-15.162,9.95-27.415s-9.808-21.06-17.8-22.208S317.824,133.94,313.827,139.684Z"/><path class="ao" d="M313.827,139.684c-6.711,9.646-4.926,12.7-6.7,17.756-2.079,5.923-4.632,17.566,4.937,25.806,9.052,7.795,20.561,6.022,28.868-.831,8.612-7.1,11.04-15.162,9.95-27.415s-9.808-21.06-17.8-22.208S317.824,133.94,313.827,139.684Z"/><path class="al" d="M344.757,147.081s-16.811-1.681-22.359-4.2-5.043-5.716-5.043-5.716-5.379,2.353-7.565-2.858,3.53-13.112,22.695-11.431c12.671,1.111,17.651,4.707,23.367,14.625s-1.9,21.338-1.9,21.338S348.287,157.5,344.757,147.081Z"/><path class="al" d="M345.177,141c0,3.447.838,3.956-.42,6.077s-2.018,8.91-.335,12.22,4.707,5.226,5.21,2.574,2.338-3.1,2.338-3.1a44.469,44.469,0,0,0-.252-11.668A7.174,7.174,0,0,0,345.177,141Z"/><path class="aj" d="M348.448,163.544c.106-3.773.515-7.476,4.1-8.268,4.128-.91,4.455,5.232,3.522,8.884s-.635,6.285-3.434,6.707-3.82-2.668-3.82-2.668Z"/><path class="ap" d="M353.953,158.837c-1.616-.106-3.433,3.513-2.726,5.855s2.726,2.236,2.726,1.6-1.717-1.49-.807-2.874S353.953,158.837,353.953,158.837Z"/><path class="aq" d="M308.913,159.853a6.353,6.353,0,1,0,6.353-6.353A6.353,6.353,0,0,0,308.913,159.853Z"/><path class="aj" d="M324.273,154.2l-2.718,6.1s-2.564,2.1-2.928,4.1,3.461,4.007,3.461,4.007"/><path class="ar" d="M323.454,153.554l-1.9,6.744s-2.564,2.1-2.928,4.1,3.461,4.007,3.461,4.007"/><path class="al" d="M329.926,147.838c-2.061,1.443-2.052,2.988.423,3.438a38.179,38.179,0,0,1,6.977,2.026c1.907.74,1.82-.725.1-2.621C335.484,148.549,332.177,146.262,329.926,147.838Z"/><path class="ar" d="M319.71,173.865c.667,2.59,4.832,5.735,8.892,0"/><path class="as" d="M334.075,157.887c0,1.434-.607,2.6-1.355,2.6s-1.355-1.163-1.355-2.6.607-2.6,1.355-2.6S334.075,156.452,334.075,157.887Z"/><path class="al" d="M319.175,147.838c2.062,1.443,2.053,2.988-.423,3.438a38.169,38.169,0,0,0-6.976,2.026c-1.907.74-1.821-.725-.1-2.621C313.617,148.549,316.925,146.262,319.175,147.838Z"/><path class="as" d="M315.027,157.887c0,1.434.606,2.6,1.355,2.6s1.355-1.163,1.355-2.6-.607-2.6-1.355-2.6S315.027,156.452,315.027,157.887Z"/><path class="aq" d="M324.241,159.2a6.353,6.353,0,1,0,6.353-6.353A6.353,6.353,0,0,0,324.241,159.2Z"/><path class="aq" d="M324.43,157.632a1.475,1.475,0,1,0-2.95,0"/><path class="at" d="M317.427,432.439s3.351,10.1,4.832,14.833,2.8,10.055,1.091,13.3c-1.063,2.023-7.169,3.9-15.035,3.368-4.873-.328-13.23-1.678-10.039-10.475,2.394-6.6,7.306-17.472,7.306-17.472Z"/><path class="aj" d="M303.957,366.128c1.185,6.515,11.549,58.908,13.326,65.423s4.442,20.433,3.85,22.21-16.88,2.369-20.433,1.48,3.553-20.626,3.85-21.862-23.691-59.848-23.691-59.848Z"/><path class="au" d="M303.957,366.128c1.185,6.515,11.549,58.908,13.326,65.423s4.442,20.433,3.85,22.21-16.88,2.369-20.433,1.48,3.553-20.626,3.85-21.862-23.691-59.848-23.691-59.848Z"/><path class="av" d="M338.434,295.378c6.43,11.87,22.778,24.235,16.348,37.094s-11.681,13.354-19.1,14.343-33.614,0-33.614,0,6.925,43.544,9.4,55.909,3.956,21.267,3.956,21.267a20.132,20.132,0,0,1-18.3,0s-30.169-75.692-33.137-86.078a19.142,19.142,0,0,1,11.87-23.088c8.408-2.967,34.909-12.167,34.909-12.167L316.5,276.6Z"/><path class="at" d="M336.972,432.439s3.351,10.1,4.832,14.833,2.8,10.055,1.091,13.3c-1.063,2.023-7.169,3.9-15.035,3.368-4.873-.328-13.23-1.678-10.039-10.475,2.394-6.6,7.306-17.472,7.306-17.472Z"/><path class="aj" d="M323.5,366.128c1.185,6.515,11.549,58.908,13.326,65.423s4.442,20.433,3.85,22.21-16.88,2.369-20.433,1.48,3.553-20.626,3.85-21.862S300.4,373.531,300.4,373.531Z"/><path class="aw" d="M323.5,366.128c1.185,6.515,11.549,58.908,13.326,65.423s4.442,20.433,3.85,22.21-16.88,2.369-20.433,1.48,3.553-20.626,3.85-21.862S300.4,373.531,300.4,373.531Z"/><path class="ax" d="M371.155,295.378c.382,17.027,1.441,31.4-2.078,38.816-6.164,12.989-18.985,11.632-26.4,12.621a91,91,0,0,1-15.9.375s1.825,24.233,6.054,55.534c1.688,12.5,2.136,21.267,2.136,21.267a20.132,20.132,0,0,1-18.3,0S291.048,348.3,288.08,337.913s.2-15.9,7.32-21.268c14.351-10.828,34.909-21.267,34.909-21.267Z"/><path class="ay" d="M367.391,282.609c-2.469-12.345-4.321-22.316-3.7-35.279s-5.555-38.887-4.938-48.146l-13.271-4.321-10.2,6.259L324.8,202.27l-8.641-7.407-9.259,4.321s-4.321,23.456-8.025,33.332.618,14.814,2.469,19.752.618,5.033-1.234,21.357A127.037,127.037,0,0,1,292.7,303.6c5.555,3.087,19.471,4.519,25.925,6.173,19.106,4.9,58.64,0,58.64,0S369.86,294.955,367.391,282.609Z"/><path class="az" d="M326.229,201.436s-5.236-1.108-9.091-7.516l-5.511,2.863s.722,12.026,4.958,12.8C319.69,210.156,326.229,201.436,326.229,201.436Z"/><path class="az" d="M326.229,201.436s10.94-3.068,19.114-7.936l3.933,1.818s-9.11,14.36-14.149,14.944C332.015,210.623,326.229,201.436,326.229,201.436Z"/><path class="aj" d="M335.463,301.47c-2.1,2.454-12.208,5.794-13.787,5.656a23.6,23.6,0,0,0-6.564.831c-2.448.589-7.2,1.925-7.06,3.316s1.782,1.261,3.034,1a15.218,15.218,0,0,1,4.009-.327,29.057,29.057,0,0,1-6.285,2.827c-2.769.7-5.981,1.253-6.534,2.222s.138,1.5,2.076,2.063a15.454,15.454,0,0,0-3.738.706c-1.384.553-1.523,2.215,0,2.63a3.025,3.025,0,0,0,2.215,0s-1.661,1.108-.83,2.492,4.153.554,4.153.554a1.429,1.429,0,0,0,1.384,1.661c1.662.277,6.472-1.026,9.515-2.115,5.574-1.995,10.521-4.167,12.321-5.966s8.583-7.186,11.906-10.232Z"/><path class="ba" d="M335.463,301.47c-2.1,2.454-12.208,5.794-13.787,5.656a23.6,23.6,0,0,0-6.564.831c-2.448.589-7.2,1.925-7.06,3.316s1.782,1.261,3.034,1a15.218,15.218,0,0,1,4.009-.327,29.057,29.057,0,0,1-6.285,2.827c-2.769.7-5.981,1.253-6.534,2.222s.138,1.5,2.076,2.063a15.454,15.454,0,0,0-3.738.706c-1.384.553-1.523,2.215,0,2.63a3.025,3.025,0,0,0,2.215,0s-1.661,1.108-.83,2.492,4.153.554,4.153.554a1.429,1.429,0,0,0,1.384,1.661c1.662.277,6.472-1.026,9.515-2.115,5.574-1.995,10.521-4.167,12.321-5.966s8.583-7.186,11.906-10.232Z"/><path class="ay" d="M359.827,199.809c-5.957-3.274-12.707,7.6-10.426,17.745s9.961,34.9,11.59,40.6a59.067,59.067,0,0,0,2.62,7.8s-9.3,14.664-18.748,24.3c-9.809,10-14.222,13.448-14.222,13.448l9.718,9.084s18.011-13.3,26.686-20.708c11.626-9.929,18.257-16.216,18.583-24.771s-2.952-20.621-7.08-32.505C370.986,213.029,367.321,203.929,359.827,199.809Z"/><path class="bb" d="M303.2,319.057a80.456,80.456,0,0,0,10.626-1.652"/><path class="bb" d="M301.261,322.617a113.071,113.071,0,0,0,12.563-1.954"/><path class="bb" d="M304.854,325.648a94.6,94.6,0,0,0,9.321-1.877"/><path class="bc" d="M211.116,428.437c3.68.252,7.391.445,11.116.6,2.765.476,5.594.823,8.468,1.042-.62,4.18-1.143,7.98-1.332,10.736-.564,8.209,1.157,8.783,1.157,8.783l-20.137-1.044a132.711,132.711,0,0,1,.577-14.257C211.142,432.621,211.119,430.642,211.116,428.437Z"/><g class="ab"><path class="bd" d="M211.116,428.437c3.68.252,7.391.445,11.116.6,2.765.476,5.594.823,8.468,1.042-.62,4.18-1.143,7.98-1.332,10.736-.564,8.209,1.157,8.783,1.157,8.783l-20.137-1.044a132.711,132.711,0,0,1,.577-14.257C211.142,432.621,211.119,430.642,211.116,428.437Z"/></g><path class="be" d="M242.589,453.932c.518,0,11.659,4,11.659,4l-.073,3.67H207.081l.072-3.67Z"/><path class="bf" d="M233.4,440.253c-.186.667,3.9,3.5,11.078,7.173s9.693,5.838,9.773,10.509h-47.1l.268-13.512s.205-1.668,5.006,0S233.4,440.253,233.4,440.253Z"/><path class="bg" d="M237.965,443.378a.249.249,0,0,0,.248-.192,6.043,6.043,0,0,0-3.017-.489,4.9,4.9,0,0,0-3.381,2.285,11.526,11.526,0,0,0-1.312,3.664"/><path class="bg" d="M242.618,445.567a.247.247,0,0,0,.247-.193,6.052,6.052,0,0,0-3.016-.488,4.9,4.9,0,0,0-3.382,2.285,11.531,11.531,0,0,0-1.311,3.664"/><path class="bc" d="M189.564,428.437c-3.633.252-7.3.445-10.975.6-2.73.476-5.523.823-8.361,1.042.613,4.18,1.129,7.98,1.315,10.736.557,8.209-1.141,8.783-1.141,8.783l19.881-1.044a134.715,134.715,0,0,0-.569-14.257C189.539,432.621,189.561,430.642,189.564,428.437Z"/><path class="bh" d="M189.564,428.437c-3.633.252-7.3.445-10.975.6-2.73.476-5.523.823-8.361,1.042.613,4.18,1.129,7.98,1.315,10.736.557,8.209-1.141,8.783-1.141,8.783l19.881-1.044a134.715,134.715,0,0,0-.569-14.257C189.539,432.621,189.561,430.642,189.564,428.437Z"/><path class="be" d="M158.082,453.932c-.518,0-11.659,4-11.659,4l.072,3.67h47.1l-.072-3.67Z"/><path class="bf" d="M167.274,440.253c.186.667-3.9,3.5-11.078,7.173s-9.693,5.838-9.773,10.509h47.1l-.268-13.512s-.206-1.668-5.006,0S167.274,440.253,167.274,440.253Z"/><path class="bg" d="M162.705,443.378a.247.247,0,0,1-.247-.192,6.043,6.043,0,0,1,3.017-.489,4.9,4.9,0,0,1,3.381,2.285,11.5,11.5,0,0,1,1.311,3.664"/><path class="bg" d="M158.053,445.567a.249.249,0,0,1-.248-.193,6.054,6.054,0,0,1,3.017-.488,4.9,4.9,0,0,1,3.381,2.285,11.509,11.509,0,0,1,1.312,3.664"/><path class="bi" d="M194.216,308.771c-2.192,11.1-4.154,23.151-.948,28.206,5.344,8.425,18.214,5.923,18.214,9.576,0,5.845-5.713,88.581-5.713,88.581s20.393,7.272,29.486,1.427c0,0,13.894-56.359,18.441-70.458s6.494-25.138,5.195-30.983-13.777-26.891-20.92-28.19S194.216,308.771,194.216,308.771Z"/><path class="bj" d="M202.068,308.771c2.845,14.41,1.18,27.017-3.692,32.055-5.136,5.311-13.574,2.727-13.574,5.727,0,5.845,3.9,40.522,5.2,56.109s3.247,32.472,3.247,32.472-19.483,9.093-28.576,3.247c0,0-17.535-58.179-22.081-72.278s-6.494-25.138-5.195-30.983,17.123-28.983,24.267-30.282S202.068,308.771,202.068,308.771Z"/><path class="aj" d="M157.067,308.771c7.462,4.407,5.876,7.072,6.675,10.554a14.241,14.241,0,0,1-.7,8.692c-.627,1.673-3.259,1.475-3.647.156-.366-1.246.573-2.907-.473-3.8s-2.795,2.629-3.632,4.836-1.882,6.39-4.182,7.017-2.3-1.882-2.3-1.882-.837,2.718-3.137,3.137-1.882-3.764-1.882-3.764-1.673,1.045-2.3-.418a4.072,4.072,0,0,1,0-2.928s-1.615.774-1.644-2.018,1.853-3.419,3.526-7.81a21.13,21.13,0,0,0,1.464-7.946Z"/><path class="bk" d="M157.067,308.771c7.462,4.407,5.876,7.072,6.675,10.554a14.241,14.241,0,0,1-.7,8.692c-.627,1.673-3.259,1.475-3.647.156-.366-1.246.573-2.907-.473-3.8s-2.795,2.629-3.632,4.836-1.882,6.39-4.182,7.017-2.3-1.882-2.3-1.882-.837,2.718-3.137,3.137-1.882-3.764-1.882-3.764-1.673,1.045-2.3-.418a4.072,4.072,0,0,1,0-2.928s-1.615.774-1.644-2.018,1.853-3.419,3.526-7.81a21.13,21.13,0,0,0,1.464-7.946Z"/><path class="bb" d="M148.776,334.953a17.224,17.224,0,0,1,.641-4.054c.279-.867,1.043-2.555,1.343-3.414"/><path class="bb" d="M143.761,334.354c.6-2.2,2.486-7.131,3.084-8.725"/><path class="bb" d="M141.49,330.368a8.648,8.648,0,0,1,1.008-3.392c.6-1.129,1.263-2.325,1.263-2.325"/><path class="aj" d="M211.251,166.528H193.19l-4.561,16.635-9.068,5.215a28.372,28.372,0,0,0,7.572,13.917c5.41,5.41,14.483,9.354,25.945,3.049,9.235-5.079,12.527-18.007,12.527-18.007l-10.026-5.162A80.891,80.891,0,0,0,211.251,166.528Z"/><path class="bl" d="M211.251,166.528H193.19l-4.561,16.635-9.068,5.215a28.372,28.372,0,0,0,7.572,13.917c5.41,5.41,14.483,9.354,25.945,3.049,9.235-5.079,12.527-18.007,12.527-18.007l-10.026-5.162A80.891,80.891,0,0,0,211.251,166.528Z"/><path class="aj" d="M231.147,142.292a30.6,30.6,0,0,0-6.935-21.936c-2.767-3.437-10.127-9.4-19.68-9.4-12.493,0-17.281,5.633-19.985,8.931a31.077,31.077,0,0,0-7.115,22.408c.984,13.907,2.542,22.51,10.451,29.711a25.43,25.43,0,0,0,32.812,0C228.6,164.8,230.162,156.2,231.147,142.292Z"/><path class="bm" d="M195.867,160.606a9.485,9.485,0,0,0,8.459,5.922c6.041.137,9.148-6.457,9.148-6.457S204.326,165.379,195.867,160.606Z"/><path class="al" d="M224.209,120.358c-.325,3.983,2.726,11.341,1.342,13.695s1.757,4.769,1.643,9.078a30.839,30.839,0,0,1-1.083,7.469s1.845.767,2.569-2.258,3.765-5.244,3.765-5.244a63.2,63.2,0,0,0,.864-13.5C232.912,122.781,224.209,120.358,224.209,120.358Z"/><path class="aj" d="M228.334,148.461c.478-4.348,1.3-8.589,5.521-9.164,4.856-.663,4.655,6.464,3.233,10.6s-1.327,7.2-4.6,7.425-4.162-3.442-4.162-3.442Z"/><path class="bn" d="M235.139,143.543c-1.857-.276-4.3,3.735-3.7,6.507s2.94,2.84,3,2.1-1.843-1.884-.662-3.4S235.139,143.543,235.139,143.543Z"/><path class="al" d="M183.768,120.358c.325,3.983-2.726,11.341-1.342,13.695s-.8,4.769-.691,9.078.131,7.469.131,7.469-1.845.767-2.569-2.258-3.765-5.244-3.765-5.244a63.194,63.194,0,0,1-.864-13.5C175.066,122.781,183.768,120.358,183.768,120.358Z"/><path class="aj" d="M179.643,148.461c-.478-4.348-1.3-8.589-5.521-9.164-4.856-.663-4.655,6.464-3.233,10.6s1.327,7.2,4.6,7.425,4.162-3.442,4.162-3.442Z"/><path class="bo" d="M172.838,143.543c1.857-.276,4.3,3.735,3.7,6.507s-2.94,2.84-3,2.1,1.843-1.884.662-3.4S172.838,143.543,172.838,143.543Z"/><path class="ar" d="M203.314,136.9l-1.428,8.655s-2.489,1.362-2.444,3.608,4.618,3.574,4.618,3.574"/><path class="al" d="M210.22,128.569c-2.518,1.473-2.653,3.259.164,4.013a44.329,44.329,0,0,1,7.87,3c2.133,1.035,2.171-.665.359-3.018C216.574,129.914,212.968,126.961,210.22,128.569Z"/><path class="as" d="M214.065,140.57c-.135,1.657-.945,2.943-1.81,2.873s-1.456-1.471-1.321-3.128.946-2.944,1.811-2.873S214.2,138.913,214.065,140.57Z"/><path class="al" d="M197.8,127.555c2.245,1.862,2.089,3.646-.813,3.933a44.364,44.364,0,0,0-8.252,1.682c-2.272.676-2.035-1.009.135-3.036C191.31,127.853,195.347,125.523,197.8,127.555Z"/><path class="as" d="M192.9,140.315c-.136,1.657.456,3.057,1.32,3.128s1.675-1.216,1.811-2.873-.456-3.058-1.321-3.128S193.036,138.657,192.9,140.315Z"/><path class="al" d="M204.168,156.425c4.241.258,7.275-1.766,8.44-1.77,2.489-.009,3.972,3.343,3.972,3.343a22.409,22.409,0,0,1-12.848,3.335c-7.568-.35-11.02-2.431-11.02-2.431s1.056-3.806,3.155-3.522C198.6,155.751,201.565,156.267,204.168,156.425Z"/><path class="bp" d="M201.568,140.44a7.1,7.1,0,1,1-7.09-7.115A7.1,7.1,0,0,1,201.568,140.44Z"/><path class="bp" d="M218.851,140.469a7.1,7.1,0,1,1-7.09-7.114A7.1,7.1,0,0,1,218.851,140.469Z"/><path class="bq" d="M201.568,140.44a7.1,7.1,0,1,1-7.09-7.115A7.1,7.1,0,0,1,201.568,140.44Z"/><path class="bq" d="M218.851,140.469a7.1,7.1,0,1,1-7.09-7.114A7.1,7.1,0,0,1,218.851,140.469Z"/><path class="bq" d="M201.477,139.345a1.649,1.649,0,1,1,3.3.005"/><path class="br" d="M200.363,164.257c.847,1.145,3.1,1.88,5.173,1.6a6.436,6.436,0,0,0,3.719-2.1s-3.369.333-4.846.583A18.028,18.028,0,0,1,200.363,164.257Z"/><path class="bc" d="M189.223,184.678l.627-3.38-12.406,5.521-1.934,10.692,15.057,20.427,7.73,19.889,12.1-13.939,13.936-10.2,5.86-16.373-2.871-13.179-7.115-.311-4.45-1.416-13.946,14.794Z"/><path class="bs" d="M189.223,184.678l.627-3.38-12.406,5.521-1.934,10.692,15.057,20.427,7.73,19.889,12.1-13.939,13.936-10.2,5.86-16.373-2.871-13.179-7.115-.311-4.45-1.416-13.946,14.794Z"/><path class="bt" d="M209.578,223.888a2.141,2.141,0,1,1-2.139-2.046A2.094,2.094,0,0,1,209.578,223.888Z"/><line class="bu" y2="39.846" transform="translate(201.59 196.872)"/><g class="bv"><path class="bw" d="M242.641,301.435s.211,5.562-.485,6.936-8.671,3.577-25.275,4.528c-16.588.939-56.672-.652-57.958-2.379s-1.184-5.943-2.157-6.977-1.573-23.111-2.607-36.357c-.89-11.246-3.129-58.7-1.08-75.3.36-2.992,9.063-6.038,16.349-7.929,7.272-1.876,17.866-2.487,17.866-2.487s21.007,3.568,30.417-.227c0,0,22.31,6.624,25.126,8.329,4.285,2.6,1.829,5.7,3.647,23.637.212,2.067.689,5.821,1.259,10.58C248.713,231.823,245.677,297.532,242.641,301.435Z"/><path class="bc" d="M200.315,210.116l-6.1-3.662-6.554,3.662,6.109,3.495Z"/><path class="bc" d="M212.88,210.116l-6.1-3.662-6.554,3.662,6.109,3.495Z"/><path class="bc" d="M225.444,210.116l-6.1-3.662-6.554,3.662,6.11,3.495Z"/><path class="bc" d="M238.258,210.116l-6.1-3.662-6.554,3.662,6.109,3.495Z"/><path class="bc" d="M250.325,210.116l-6.1-3.662-6.554,3.662,6.11,3.495Z"/><path class="bc" d="M163.166,210.116l-6.1-3.662-6.554,3.662,6.11,3.495Z"/><path class="bc" d="M175.98,210.116l-6.1-3.662-6.554,3.662,6.11,3.495Z"/><path class="bc" d="M188.046,210.116l-6.1-3.662-6.554,3.662,6.11,3.495Z"/><path class="bc" d="M200.315,312.433l-6.1-3.662-6.554,3.662,6.109,3.495Z"/><path class="bc" d="M212.88,312.433l-6.1-3.662-6.554,3.662,6.109,3.495Z"/><path class="bc" d="M225.444,312.433l-6.1-3.662-6.554,3.662,6.11,3.495Z"/><path class="bc" d="M238.258,312.433l-6.1-3.662-6.554,3.662,6.109,3.495Z"/><path class="bc" d="M250.325,312.433l-6.1-3.662-6.554,3.662,6.11,3.495Z"/><path class="bc" d="M163.166,312.433l-6.1-3.662-6.554,3.662,6.11,3.495Z"/><path class="bc" d="M175.98,312.433l-6.1-3.662-6.554,3.662,6.11,3.495Z"/><path class="bc" d="M188.046,312.433l-6.1-3.662-6.554,3.662,6.11,3.495Z"/><path class="bc" d="M200.315,265.452l-6.1-3.662-6.554,3.662,6.109,3.495Z"/><path class="bc" d="M212.88,265.452l-6.1-3.662-6.554,3.662,6.109,3.495Z"/><path class="bc" d="M225.444,265.452l-6.1-3.662-6.554,3.662,6.11,3.495Z"/><path class="bc" d="M238.258,265.452l-6.1-3.662-6.554,3.662,6.109,3.495Z"/><path class="bc" d="M250.325,265.452l-6.1-3.662-6.554,3.662,6.11,3.495Z"/><path class="bc" d="M163.166,265.452l-6.1-3.662-6.554,3.662,6.11,3.495Z"/><path class="bc" d="M175.98,265.452l-6.1-3.662-6.554,3.662,6.11,3.495Z"/><path class="bc" d="M188.046,265.452l-6.1-3.662-6.554,3.662,6.11,3.495Z"/><path class="bc" d="M248,277.379H153.337l.04-1.744h94.663Z"/><path class="bc" d="M248,249.931H153.337l.04-1.744h94.663Z"/><path class="bc" d="M248,222.483H153.337l.04-1.744h94.663Z"/><path class="bc" d="M248,195.035H153.337l.04-1.744h94.663Z"/><path class="bc" d="M248,301.923H153.337l.04-1.744h94.663Z"/></g><path class="bt" d="M202.2,197.205l12.791-19.044,5.393,2.965-1.18,17.887-9.853-5.893Z"/><path class="bt" d="M201.59,197.948l-12-19.044-6.264,4.6,1.188,16.253,10.1-5.893Z"/><path class="bx" d="M144.456,316.733a19.451,19.451,0,0,1,14.467-6.213c-8.856-22.525-10.485-36.968-10.485-36.968s7.062-17.418,8.416-23.621c3.458-15.83-1.528-58.048-1.528-58.048s-9.066,4.363-11.918,10.5-24,62.981-22.571,69.8S144.2,316.519,144.456,316.733Z"/></g></g></g></svg>