<svg xmlns="http://www.w3.org/2000/svg" width="70" height="70" viewBox="0 0 70 70"><defs><style>.a{fill:#fff;}.b{fill:#292075;}</style></defs><g transform="translate(-20 -1766)"><circle class="a" cx="35" cy="35" r="35" transform="translate(20 1766)"/><g transform="translate(40.192 1787.538)"><path class="b" d="M34.01,5H7.624A2.613,2.613,0,0,0,5,7.6V34.717a1.579,1.579,0,0,0,.982,1.459,1.608,1.608,0,0,0,1.738-.337l5.05-4.949H34.01a2.613,2.613,0,0,0,2.624-2.6V7.6A2.613,2.613,0,0,0,34.01,5Zm.515,23.294a.513.513,0,0,1-.515.51H11.9L7.109,33.5V7.6a.513.513,0,0,1,.515-.51H34.01a.513.513,0,0,1,.515.51ZM23.539,12.25a1.212,1.212,0,1,1-1.212-1.2,1.205,1.205,0,0,1,1.212,1.2Zm-.994,10.834a4.44,4.44,0,0,1-1.767,1.525c-1.146.548-2.919.077-2.61-1.066L19.84,17.37c.585-2.16-1.024-1.452-1.744-1.139a4.44,4.44,0,0,1,1.767-1.525c1.146-.548,2.919-.077,2.61,1.066L20.8,21.946C20.216,24.105,21.824,23.4,22.545,23.084Z" transform="translate(-5 -5)"/></g></g></svg>