<svg id="Group_8072" data-name="Group 8072" xmlns="http://www.w3.org/2000/svg" xmlns:xlink="http://www.w3.org/1999/xlink" width="185.667" height="183.943" viewBox="0 0 185.667 183.943">
  <defs>
    <linearGradient id="linear-gradient" y1="0.706" x2="1" y2="0.487" gradientUnits="objectBoundingBox">
      <stop offset="0" stop-color="#00b3ee"/>
      <stop offset="1" stop-color="#009fd3"/>
    </linearGradient>
    <linearGradient id="linear-gradient-2" x1="79.999" y1="-0.843" x2="79.492" y2="2.39" gradientUnits="objectBoundingBox">
      <stop offset="0" stop-color="#febbba"/>
      <stop offset="1" stop-color="#ff928e"/>
    </linearGradient>
    <linearGradient id="linear-gradient-3" x1="86.773" y1="-0.224" x2="86.258" y2="2.539" xlink:href="#linear-gradient-2"/>
    <linearGradient id="linear-gradient-4" x1="7.665" y1="0.914" x2="7.749" y2="-0.171" gradientUnits="objectBoundingBox">
      <stop offset="0" stop-color="#292075"/>
      <stop offset="1" stop-color="#1a0f91"/>
    </linearGradient>
    <linearGradient id="linear-gradient-5" x1="21.344" y1="0.5" x2="22.344" y2="0.5" xlink:href="#linear-gradient-2"/>
    <linearGradient id="linear-gradient-6" x1="103.286" y1="-11.735" x2="104.718" y2="-11.995" xlink:href="#linear-gradient-2"/>
    <linearGradient id="linear-gradient-7" x1="10.299" y1="4.839" x2="11.439" y2="4.839" gradientUnits="objectBoundingBox">
      <stop offset="0" stop-color="#2b1c13"/>
      <stop offset="1" stop-color="#1a0f91"/>
    </linearGradient>
    <linearGradient id="linear-gradient-8" x1="301.895" y1="-40.594" x2="306.076" y2="-41.447" xlink:href="#linear-gradient-2"/>
    <linearGradient id="linear-gradient-9" x1="21.975" y1="-0.15" x2="20.221" y2="2.992" xlink:href="#linear-gradient-2"/>
    <linearGradient id="linear-gradient-10" x1="21.236" y1="0.019" x2="22.222" y2="2.089" xlink:href="#linear-gradient-2"/>
    <linearGradient id="linear-gradient-11" x1="-124.176" y1="1.602" x2="-123.141" y2="-1.187" xlink:href="#linear-gradient-2"/>
    <linearGradient id="linear-gradient-12" x1="-53.431" y1="1.698" x2="-52.968" y2="-1.193" xlink:href="#linear-gradient-2"/>
    <linearGradient id="linear-gradient-13" x1="-163.192" y1="1.857" x2="-162.938" y2="0.807" xlink:href="#linear-gradient-2"/>
    <linearGradient id="linear-gradient-14" x1="-94.75" y1="0.5" x2="-93.75" y2="0.5" xlink:href="#linear-gradient-2"/>
    <linearGradient id="linear-gradient-15" x1="-111.376" y1="-15.371" x2="-109.842" y2="-17.625" xlink:href="#linear-gradient-2"/>
    <linearGradient id="linear-gradient-16" x1="-419.382" y1="-49.468" x2="-413.589" y2="-56.61" xlink:href="#linear-gradient-2"/>
    <linearGradient id="linear-gradient-17" x1="-28.712" y1="-0.426" x2="-28.183" y2="2.501" xlink:href="#linear-gradient-2"/>
    <linearGradient id="linear-gradient-18" x1="135.8" y1="-4.058" x2="132.361" y2="3.366" xlink:href="#linear-gradient-2"/>
    <linearGradient id="linear-gradient-19" x1="138.792" y1="-6.36" x2="135.305" y2="1.144" xlink:href="#linear-gradient-2"/>
    <linearGradient id="linear-gradient-20" x1="37.888" y1="1.753" x2="37.866" y2="-0.794" xlink:href="#linear-gradient-2"/>
    <linearGradient id="linear-gradient-21" x1="-40.095" y1="-6.912" x2="-40.247" y2="-8.183" xlink:href="#linear-gradient-2"/>
    <linearGradient id="linear-gradient-22" x1="-436.566" y1="-33.257" x2="-438.247" y2="-39.074" xlink:href="#linear-gradient-2"/>
    <linearGradient id="linear-gradient-23" x1="-212.002" y1="-26.229" x2="-212.783" y2="-30.809" xlink:href="#linear-gradient-2"/>
    <linearGradient id="linear-gradient-24" x1="-99.94" y1="-0.211" x2="-98.247" y2="2.297" xlink:href="#linear-gradient-2"/>
    <linearGradient id="linear-gradient-25" x1="-81.977" y1="0.041" x2="-81.485" y2="1.874" xlink:href="#linear-gradient-2"/>
    <linearGradient id="linear-gradient-26" x1="-77.37" y1="-0.128" x2="-76.639" y2="2.082" xlink:href="#linear-gradient-2"/>
    <linearGradient id="linear-gradient-27" x1="-27.623" y1="-0.804" x2="-28.125" y2="0.916" xlink:href="#linear-gradient-2"/>
    <linearGradient id="linear-gradient-28" x1="-27.332" y1="-0.362" x2="-28.465" y2="2.192" xlink:href="#linear-gradient-2"/>
    <linearGradient id="linear-gradient-29" x1="-66.086" y1="0.05" x2="-65.695" y2="0.979" xlink:href="#linear-gradient-2"/>
    <linearGradient id="linear-gradient-30" y1="0.5" x2="1" y2="0.5" gradientUnits="objectBoundingBox">
      <stop offset="0" stop-color="#e1473d"/>
      <stop offset="1" stop-color="#e9605a"/>
    </linearGradient>
    <linearGradient id="linear-gradient-31" x1="-81.429" y1="2.032" x2="-80.847" y2="0.212" xlink:href="#linear-gradient-2"/>
    <linearGradient id="linear-gradient-32" x1="-36.761" y1="3.133" x2="-33.612" y2="1.36" xlink:href="#linear-gradient-2"/>
    <linearGradient id="linear-gradient-33" x1="-160.369" y1="-12.122" x2="-145.541" y2="-19.241" xlink:href="#linear-gradient-2"/>
    <linearGradient id="linear-gradient-34" x1="-39.286" y1="0.054" x2="-39.018" y2="1.003" xlink:href="#linear-gradient-2"/>
    <linearGradient id="linear-gradient-35" x1="-119.473" y1="0.014" x2="-119.254" y2="1.026" xlink:href="#linear-gradient-2"/>
    <linearGradient id="linear-gradient-36" x1="-120.183" y1="0.077" x2="-119.957" y2="0.902" xlink:href="#linear-gradient-2"/>
  </defs>
  <g id="Group_7984" data-name="Group 7984" transform="translate(0.549 0)">
    <g id="Group_7983" data-name="Group 7983" transform="translate(0 0)">
      <path id="Path_10985" data-name="Path 10985" d="M480,511.292a5.237,5.237,0,0,1,4.05-1.394c15.905,1.43,45.58-6.231,64.975-26.075,1.347-1.378,3.8-.6,5.345.554,21.569,16.121,57.323,19.459,69.735,20.141a5.236,5.236,0,0,1,4.916,4.691c11.287,109.016-59.692,148.52-74.414,155.493a5.25,5.25,0,0,1-5.015-.29c-73.371-45.7-70.232-105.135-71.247-149.172A5.244,5.244,0,0,1,480,511.292Z" transform="translate(-478.343 -483.089)" fill="url(#linear-gradient)"/>
      <path id="Path_10986" data-name="Path 10986" d="M662.861,788.785a1.717,1.717,0,0,1-.925-.27c-28.123-17.977-46.452-39.469-56.035-65.7-8.559-23.432-8.978-47.293-9.348-68.346l-.05-2.807a1.685,1.685,0,0,1,.486-1.222,1.705,1.705,0,0,1,1.227-.513h0c17.425,0,43.58-7.694,62.763-24.883a1.708,1.708,0,0,1,2.084-.151c21.076,13.985,51.138,18.057,67.182,19.239a1.7,1.7,0,0,1,1.574,1.555c3.728,42.529-5.118,78.492-26.291,106.889A126.182,126.182,0,0,1,663.638,788.6,1.7,1.7,0,0,1,662.861,788.785Zm.479-.768.149.29-.149-.29a125.5,125.5,0,0,0,41.666-35.834c21.074-28.265,29.877-64.076,26.164-106.441a1.049,1.049,0,0,0-.97-.96c-16.108-1.187-46.3-5.279-67.5-19.347a1.055,1.055,0,0,0-1.286.093,100.416,100.416,0,0,1-32.2,18.967c-10.682,3.923-21.685,6.083-30.983,6.083h0a1.068,1.068,0,0,0-.776.318,1.04,1.04,0,0,0-.3.752l.05,2.808c.369,21,.787,44.8,9.308,68.133,9.532,26.094,27.775,47.479,55.773,65.376A1.06,1.06,0,0,0,663.34,788.017Z" transform="translate(-588.583 -615.119)" fill="#292075"/>
    </g>
    <path id="Path_10987" data-name="Path 10987" d="M1894.489,1068.3l16.844,17.866,26.433-36.2-26.433,26.7Z" transform="translate(-1800.054 -1010.612)" fill="#fce200"/>
  </g>
  <g id="Group_7986" data-name="Group 7986" transform="translate(32.728 36.28)">
    <path id="Path_10988" data-name="Path 10988" d="M1178.365,3102.46a.853.853,0,0,1,.023-.229c1.138-4.513,5.793-6.825,5.793-6.825l2.239.174c1.288,3.978,2.118,5.92,1.911,7.007-.006.03-.015.059-.023.088A52.985,52.985,0,0,1,1178.365,3102.46Z" transform="translate(-1163.618 -2956.571)" fill="#fff"/>
    <path id="Path_10989" data-name="Path 10989" d="M1188.31,3200.861a.974.974,0,0,1-.711.718c-2.627.552-6.8.108-8.556-.121a.816.816,0,0,1-.676-.813A53.139,53.139,0,0,0,1188.31,3200.861Z" transform="translate(-1163.62 -3054.754)" fill="#d1d1d1"/>
    <path id="Path_10990" data-name="Path 10990" d="M1237.628,3043.432l.98,4.719a.772.772,0,0,0,.659.635,6.514,6.514,0,0,0,1.519-.024.97.97,0,0,0,.768-1.139l-.681-4.191Z" transform="translate(-1218.909 -2908.08)" fill="url(#linear-gradient-2)"/>
    <path id="Path_10991" data-name="Path 10991" d="M1551.066,3194.8a12.9,12.9,0,0,1-4.267-.61c0,.238,0,.48.007.731a.473.473,0,0,0,.451.48l13.129-.084a.6.6,0,0,0,.482-.874C1559.147,3194.581,1554.763,3194.9,1551.066,3194.8Z" transform="translate(-1507.354 -3048.727)" fill="#d1d1d1"/>
    <path id="Path_10992" data-name="Path 10992" d="M1560.875,3108.43a.589.589,0,0,0-.052-.1,16.735,16.735,0,0,0-9.948-6.246l-2.8-.088a13.426,13.426,0,0,0-1.27,6.179,12.91,12.91,0,0,0,4.267.611C1554.77,3108.891,1559.154,3108.573,1560.875,3108.43Z" transform="translate(-1507.361 -2962.719)" fill="#fff"/>
    <path id="Path_10993" data-name="Path 10993" d="M1558.008,3029.262c.031.209.414,3.38.563,4.61a.609.609,0,0,0,.513.55,6.4,6.4,0,0,0,1.923-.03.829.829,0,0,0,.628-.831v-4.978Z" transform="translate(-1517.813 -2894.226)" fill="url(#linear-gradient-3)"/>
    <path id="Path_10994" data-name="Path 10994" d="M1227.348,2119.038s-4.48,39.819-1.991,64.7a19.25,19.25,0,0,0,4.479-.5s4.655-38.931,6.161-50.072a.374.374,0,0,1,.739-.023c1.858,9.372,9.156,46.127,10.024,49.6a6.2,6.2,0,0,0,4.479,0s-3.982-53.256-6.968-62.713Z" transform="translate(-1206.758 -2045.652)" fill="url(#linear-gradient-4)"/>
    <path id="Path_10995" data-name="Path 10995" d="M1130.969,1413.564s18.913-2.987,33.845.995l-1,15.43s-3.982,21.4-6.968,30.859c0,0-11.448,1.991-16.923-1,0,0-4.479-26.877-6.968-30.859C1132.96,1428.994,1130.471,1418.541,1130.969,1413.564Z" transform="translate(-1119.339 -1386.467)" fill="#00827e"/>
    <path id="Path_10996" data-name="Path 10996" d="M1301.665,1225.645l-1.884,12.742s5.264,2.418,8.95-.1l-.793-8.992Z" transform="translate(-1276.895 -1212.148)" fill="url(#linear-gradient-5)"/>
    <g id="Group_7985" data-name="Group 7985" transform="translate(21.172 0)">
      <path id="Path_10997" data-name="Path 10997" d="M1323.459,1090.823c.059.108,1.195,6.533,1.894,10.51a2.791,2.791,0,0,1-2.584,3.268l-1.525.09a5.436,5.436,0,0,1-5.695-4.6l-1.1-7.2S1322.018,1088.21,1323.459,1090.823Z" transform="translate(-1311.749 -1085.622)" fill="url(#linear-gradient-6)"/>
      <path id="Path_10998" data-name="Path 10998" d="M1275.277,1031.579a2.139,2.139,0,0,1,.15-3.139,3.016,3.016,0,0,1,3.6-.52,1,1,0,0,0,1.182-.234.638.638,0,0,1,.6-.221.939.939,0,0,0,1.061-.816,2.476,2.476,0,0,1,2.186-2.276c2.93-.567,4.392,2.366,4.34,4.427s-3.264,2.495-5.086,2.153c-1.338-.251-2.5.925-3.016,1.567a.967.967,0,0,0-.191.831l.463,1.991a9.216,9.216,0,0,1-1.086,1.779,1.965,1.965,0,0,1-1.058.679c-.546-1.017-2.074-1.189-2.784-1.212a.971.971,0,0,1-.7-.333,2.13,2.13,0,0,1,.23-3.331A.967.967,0,0,0,1275.277,1031.579Z" transform="translate(-1274.226 -1024.301)" fill="url(#linear-gradient-7)"/>
      <path id="Path_10999" data-name="Path 10999" d="M1292.431,1201.844s-.064-3.595-1.518-3.933-3.025.714-1.781,2.867C1290.681,1203.455,1292.431,1201.844,1292.431,1201.844Z" transform="translate(-1287.712 -1186.215)" fill="url(#linear-gradient-8)"/>
    </g>
    <path id="Path_11000" data-name="Path 11000" d="M970.015,1428.527s-29.366,31.854,5.226,44.049v-2.489s-12.941-10.95-2.986-25.882C972.255,1444.205,971.01,1430.02,970.015,1428.527Z" transform="translate(-958.384 -1401.429)" fill="#00827e"/>
    <path id="Path_11001" data-name="Path 11001" d="M1204.9,2021.679s4.479-2.986,6.471-1.99a3.078,3.078,0,0,1,1.991,2.489s-1,1.99-2.489,1.493-4.977.5-6.47,0C1204.4,2023.67,1203.9,2021.679,1204.9,2021.679Z" transform="translate(-1187.794 -1952.773)" fill="url(#linear-gradient-9)"/>
    <path id="Path_11002" data-name="Path 11002" d="M1581.358,1443.377s30.61,30.859-3.982,43.053v-2.489s12.941-10.95,2.987-25.882C1580.362,1458.06,1579.367,1445.865,1581.358,1443.377Z" transform="translate(-1535.882 -1415.285)" fill="#00827e"/>
    <path id="Path_11003" data-name="Path 11003" d="M1455.9,2021.679s-4.479-2.986-6.47-1.99a3.078,3.078,0,0,0-1.991,2.489s1,1.99,2.489,1.493,4.977.5,6.47,0C1456.4,2023.67,1456.9,2021.679,1455.9,2021.679Z" transform="translate(-1414.658 -1952.773)" fill="url(#linear-gradient-10)"/>
  </g>
  <g id="Group_7988" data-name="Group 7988" transform="translate(0 37.761)">
    <path id="Path_11004" data-name="Path 11004" d="M724.358,1131.982s-3.119,1.517-3.693,3.26c-.46,1.4-3.909,1.579-4.25,4.329a3.155,3.155,0,0,1-2.641,2.774c-3.523.54-8.951,2.369-9.819,8.485-.663,4.668,1.716,6.438,4.214,7.051a3.538,3.538,0,0,1,2.682,4.086c-.356,1.776.175,3.829,3.252,5.453,6.9,3.638,13.782-8.62,13.782-8.62l1.411-21.4Z" transform="translate(-688.179 -1126.245)"/>
    <path id="Path_11005" data-name="Path 11005" d="M477.992,3114.57l-.446,3.668a1.515,1.515,0,0,1-1.329,1.326,23.517,23.517,0,0,1-4.91.077,1.3,1.3,0,0,1-1.09-1.683,13.347,13.347,0,0,1,2.461-4.793h4.069A1.254,1.254,0,0,1,477.992,3114.57Z" transform="translate(-470.156 -2974.619)" fill="#fce200"/>
    <path id="Path_11006" data-name="Path 11006" d="M953.218,2493.083l.687,4.041s-2.3,23.3-2.709,32.617a7.3,7.3,0,0,0,1.081,4.15l4,6.5-10.165-6-.2-1.241,1.664-2.288-2.18-26.1a8.009,8.009,0,0,1,.911-4.429l2.1-3.95Z" transform="translate(-913.51 -2396.104)" fill="url(#linear-gradient-11)"/>
    <path id="Path_11007" data-name="Path 11007" d="M953.371,3078.536h-3.244a1.949,1.949,0,0,1-1.55-.76c-1.011-1.313-3.106-3.876-4.108-3.943-1.348-.091-1.176,4.7-1.176,4.7h-.756l-.958-5.958a3.526,3.526,0,0,1,1.851-3.686h0a4.985,4.985,0,0,0,1.98,3.288c1.671,1.009,6.8,4.62,6.8,4.62a4.647,4.647,0,0,1,1.318.034A.858.858,0,0,1,953.371,3078.536Z" transform="translate(-909.936 -2933.314)" fill="#fce200"/>
    <path id="Path_11008" data-name="Path 11008" d="M515.775,2498.342s-13.475,25.559-15.617,31.394a56.088,56.088,0,0,0-2.921,11.165c-.045.72-.941,1.411-3.411,1.411a2.37,2.37,0,0,1-2.2-1.006,1.439,1.439,0,0,1-.055-1.394c.78-1.578,3.253-6.618,4.169-8.9,1.094-2.729,3.446-15.1,4.737-19.4s2.749-8.968,8.368-13.264C508.841,2498.342,512.7,2494.563,515.775,2498.342Z" transform="translate(-489.989 -2399.444)" fill="url(#linear-gradient-12)"/>
    <path id="Path_11009" data-name="Path 11009" d="M907.628,1468.022c3.476-14.728-5.33-23.059-5.33-23.059,5.556-5.333,15.679-7.76,15.679-7.76s9.659,7.062,8.514,12.59c-.672,3.24-6.789,19.405-6.789,19.405A13.442,13.442,0,0,1,907.628,1468.022Z" transform="translate(-873.329 -1411.006)" fill="#fce200"/>
    <path id="Path_11010" data-name="Path 11010" d="M753.174,1904.234c1.415-4.262,7.707-7.292,7.707-7.292a13.442,13.442,0,0,0,12.073,1.176,24.213,24.213,0,0,1,.393,9.356c-.876,4.508-6.37,33.471-6.37,33.471-8.657,1.754-21.97-1.765-21.97-1.765C750.521,1929.39,751.76,1908.495,753.174,1904.234Z" transform="translate(-726.582 -1839.926)" fill="#221882"/>
    <path id="Path_11011" data-name="Path 11011" d="M1002.044,1275.165l-2.826,12.694c-.271,1.118.749.935,1.879.722,1.851-.349,4.237-1.068,5.035-2.508a1.363,1.363,0,0,0,.145-.478l1.214-8.8a1.582,1.582,0,0,0-.926-1.662l-2.343-1.039A1.582,1.582,0,0,0,1002.044,1275.165Z" transform="translate(-963.711 -1258.7)" fill="url(#linear-gradient-13)"/>
    <path id="Path_11012" data-name="Path 11012" d="M769.188,1552.962s-19.724,14.111-2.523,28.939a4.445,4.445,0,0,0,1.946,1.128,21.409,21.409,0,0,1,3.555,2.413.668.668,0,0,0,.979-.176h0a.915.915,0,0,0,.052-.876l-2.442-5.163a1.884,1.884,0,0,0-2.446-.106h0a.929.929,0,0,1-1.409-.319c-1.33-2.708-3.841-10.674,6.436-19.674a1.113,1.113,0,0,0,.247-1.353C772.862,1556.386,771.211,1553.632,769.188,1552.962Z" transform="translate(-740.22 -1519.004)" fill="url(#linear-gradient-14)"/>
    <g id="Group_7987" data-name="Group 7987" transform="translate(32.737 0)">
      <path id="Path_11013" data-name="Path 11013" d="M1020.143,1113.1s3.009,2.037,4.3,7.223-.808,7.046-2.961,6.932a9.991,9.991,0,0,1-7.981-4.5C1010.8,1119.032,1016.2,1110.61,1020.143,1113.1Z" transform="translate(-1009.134 -1108.205)" fill="url(#linear-gradient-15)"/>
      <path id="Path_11014" data-name="Path 11014" d="M965.6,1058.851s-1.1-7.432,5.067-6.3l1.248,1.3s3.02-3.4-.322-5.972-7.98-1.913-10.546,2.768-3.5,7.969-1.346,10.878,3.768.414,3.768.414-.986-2.517-.168-3.6,1.874.628,1.874.628Z" transform="translate(-958.509 -1046.395)"/>
      <path id="Path_11015" data-name="Path 11015" d="M1007.315,1200.97s-.544-3.823-2.5-2.731.7,3.572,1.769,4.415Z" transform="translate(-1001.063 -1187.878)" fill="url(#linear-gradient-16)"/>
    </g>
  </g>
  <g id="Group_7995" data-name="Group 7995" transform="translate(121.949 131.275)">
    <g id="Group_7989" data-name="Group 7989" transform="translate(4.618 32.724)">
      <path id="Path_11016" data-name="Path 11016" d="M2359.157,2939.383l8.312.289a.963.963,0,0,0,1-1.008l-.391-8.2a.963.963,0,0,0-.962-.918h-7.922a.964.964,0,0,0-.963.963v7.911A.963.963,0,0,0,2359.157,2939.383Z" transform="translate(-2358.227 -2929.547)" fill="#fce200"/>
    </g>
    <path id="Path_11017" data-name="Path 11017" d="M2548.07,2836.007s-8.3,8.643-13.558,0l-1.526,2.373s6.1,12.541,19.32,1.525Z" transform="translate(-2516.653 -2809.554)" fill="url(#linear-gradient-17)"/>
    <path id="Path_11018" data-name="Path 11018" d="M2742.853,2729.508a10.9,10.9,0,0,1,3.317-1.542c.445-.122,2.851.578,4.339.543,2.042-.048,4.12-.976,5.8-.557a12.158,12.158,0,0,1,3.831,1.522c2.364,1.683,3.753,4.819,4.6,7.925a10.825,10.825,0,0,1-3.618,2.375l-.373,15.1-9.123,2.761-10-3.309.365-14.755a51.208,51.208,0,0,1-4.437-4.136C2737.323,2734.887,2740,2731.472,2742.853,2729.508Z" transform="translate(-2707.5 -2708.642)" fill="#292075"/>
    <g id="Group_7990" data-name="Group 7990" transform="translate(52.991 48.061)">
      <path id="Path_11019" data-name="Path 11019" d="M3105.863,3159.93a39.479,39.479,0,0,0-7.419-.237l-.211.57-.349,2.834a58.716,58.716,0,0,0,7.362.887,2.3,2.3,0,0,0,.683-.1,2.934,2.934,0,0,0,.214-.21A2.671,2.671,0,0,0,3105.863,3159.93Z" transform="translate(-3096.675 -3159.533)" fill="#00a98f"/>
      <path id="Path_11020" data-name="Path 11020" d="M3217.126,3164.33c-.07-.021-.145-.038-.222-.057a2.674,2.674,0,0,1,.282,3.743c-.068.074-.142.144-.215.21C3218.794,3167.658,3219.011,3164.859,3217.126,3164.33Z" transform="translate(-3207.716 -3163.875)" fill="#fce200"/>
      <path id="Path_11021" data-name="Path 11021" d="M3080.115,3158.344l.877.038a1.687,1.687,0,0,1,1.232.637,2.081,2.081,0,0,1,.453,1.422,1.637,1.637,0,0,1-.475,1.081,1.329,1.329,0,0,1-1.025.391l-1.343-.1Z" transform="translate(-3079.833 -3158.344)" fill="url(#linear-gradient-18)"/>
    </g>
    <g id="Group_7991" data-name="Group 7991" transform="translate(22.203 47.985)">
      <path id="Path_11022" data-name="Path 11022" d="M2630.6,3157.413a39.515,39.515,0,0,1,7.423-.01l.2.577.278,2.844a58.767,58.767,0,0,1-7.382.66,2.252,2.252,0,0,1-.679-.123c-.072-.067-.142-.139-.21-.216A2.67,2.67,0,0,1,2630.6,3157.413Z" transform="translate(-2629.02 -3157.213)" fill="#00a98f"/>
      <path id="Path_11023" data-name="Path 11023" d="M2621.907,3160.255c.071-.018.145-.034.224-.05a2.67,2.67,0,0,0-.375,3.733c.066.076.138.147.21.216C2620.157,3163.531,2620.012,3160.727,2621.907,3160.255Z" transform="translate(-2620.546 -3160.004)" fill="#fce200"/>
      <path id="Path_11024" data-name="Path 11024" d="M2740.785,3158.354l-.878.011a1.674,1.674,0,0,0-1.248.6,2.061,2.061,0,0,0-.487,1.407,1.641,1.641,0,0,0,.448,1.095,1.333,1.333,0,0,0,1.015.421l1.345-.055Z" transform="translate(-2730.287 -3158.278)" fill="url(#linear-gradient-19)"/>
    </g>
    <path id="Path_11025" data-name="Path 11025" d="M2796.719,3000.916c-1.016-2.337-3.5-2.718-5.615-1.624-.037.048-13.433,6.914-25.247,9.923a12.865,12.865,0,0,1,.55,3.372q.01.38-.012.748c9.059-.466,18.891-3.487,27.34-6.142A4.67,4.67,0,0,0,2796.719,3000.916Z" transform="translate(-2733.913 -2961.347)"/>
    <path id="Path_11026" data-name="Path 11026" d="M2684.594,3008.32a7.8,7.8,0,0,1,.762-3.651c.016-.051.034-.1.051-.152-.675-.208-1.547-.491-2.692-.88a129.146,129.146,0,0,1-20.9-9.107,3.824,3.824,0,0,0-5.83,2.38,4.4,4.4,0,0,0,3.07,5.4c6.761,2.25,3.241,1.625,5.449,2.335a92.425,92.425,0,0,0,20.1,3.96C2684.6,3008.509,2684.6,3008.415,2684.594,3008.32Z" transform="translate(-2631.257 -2956.901)"/>
    <path id="Path_11027" data-name="Path 11027" d="M2866.206,2675.6a5.176,5.176,0,0,0,5.283,3.829c4.461-.082,4.859-3.843,4.859-3.843l-2.915-.623-.243-3.248-4.383.325-.081,3.084Z" transform="translate(-2827.536 -2656.28)" fill="url(#linear-gradient-20)"/>
    <path id="Path_11028" data-name="Path 11028" d="M2806.178,2452.389s-1.793-1.842-.446-3.305a2.793,2.793,0,0,1-.014-3.378s1.156-6.521,7.675-3.533c0,0,4.4-2.391,7.322,3a2.5,2.5,0,0,1,1.588,2.811s2.123,7.886-5.675,6.76Z" transform="translate(-2770.562 -2441.389)" fill="#3c1e00" fill-rule="evenodd"/>
    <path id="Path_11029" data-name="Path 11029" d="M2811.37,2517.52s-5.208,9.673,1.227,12.16,9-4.317,9-4.317,2.388-3.194,1.188-5.27S2812.78,2516.123,2811.37,2517.52Z" transform="translate(-2774.52 -2511.969)" fill-rule="evenodd" fill="url(#linear-gradient-21)"/>
    <path id="Path_11030" data-name="Path 11030" d="M2801.671,2575.646s.264-1.212-.81-1.287.315,2.88.315,2.88Z" transform="translate(-2766.191 -2565.444)" fill-rule="evenodd" fill="url(#linear-gradient-22)"/>
    <path id="Path_11031" data-name="Path 11031" d="M2833.822,2498.045s-6.523-1.193-6.454-4.965a1.4,1.4,0,0,1-1.568-.992s-2.728,3.157-3.783,1.324c0,0-.068-4.862,3.889-3.784s7.591,2.224,8.738,3.2S2836.964,2496.381,2833.822,2498.045Z" transform="translate(-2786.308 -2486.25)" fill="#3c1e00" fill-rule="evenodd"/>
    <path id="Path_11032" data-name="Path 11032" d="M2981.041,2604.762l.727-3.2s2.027-1.261,1.954.44A3.065,3.065,0,0,1,2981.041,2604.762Z" transform="translate(-2934.672 -2590.403)" fill-rule="evenodd" fill="url(#linear-gradient-23)"/>
    <path id="Path_11033" data-name="Path 11033" d="M2998.241,2871.123s3.364,13.578-6.974,17.475a7.089,7.089,0,0,1-3.22-1.186,16.572,16.572,0,0,0,6.385-13.987A27.792,27.792,0,0,1,2998.241,2871.123Z" transform="translate(-2941.208 -2842.316)" fill="url(#linear-gradient-24)"/>
    <path id="Path_11034" data-name="Path 11034" d="M2929.189,3078.469s-3.22-.678-4.576-.848-3.18-.492-2.352-2.449,2.012-1.618,3.539-.771C2926.5,3074.791,2930.207,3077.282,2929.189,3078.469Z" transform="translate(-2879.639 -3031.341)" fill="url(#linear-gradient-25)"/>
    <g id="Group_7992" data-name="Group 7992" transform="translate(8.537 27.651)">
      <path id="Path_11035" data-name="Path 11035" d="M2417.544,2862.882l7.607.265a.882.882,0,0,0,.911-.922l-.358-7.5a.88.88,0,0,0-.88-.839h-7.249a.881.881,0,0,0-.882.881V2862A.882.882,0,0,0,2417.544,2862.882Z" transform="translate(-2416.693 -2853.881)" fill="#00a98f"/>
    </g>
    <path id="Path_11036" data-name="Path 11036" d="M2459.68,2818.074c.141-.685.6-3.089,1.841-3.565,2.556-.988,4.674,1.372,4.674,1.372l.424,1.919a.8.8,0,0,0-.319-.281c-.329,1.26-1.363,2.482-1.884,2.272-.848-.339-.678-.339.17-1.694a.093.093,0,0,1,.007-.011.575.575,0,0,0-.531-.867c-1.106.072-2.189.379-2.4.855C2461.238,2819.034,2459.538,2818.76,2459.68,2818.074Z" transform="translate(-2448.253 -2789.271)" fill="url(#linear-gradient-26)"/>
    <g id="Group_7993" data-name="Group 7993" transform="translate(10.719 42.384)">
      <path id="Path_11037" data-name="Path 11037" d="M2450.169,3083.485l8.313.29a.965.965,0,0,0,1-1.01l-.39-8.2a.964.964,0,0,0-.962-.917H2450.2a.963.963,0,0,0-.963.963v7.909A.964.964,0,0,0,2450.169,3083.485Z" transform="translate(-2449.24 -3073.65)" fill="#00827e"/>
    </g>
    <g id="Group_7994" data-name="Group 7994" transform="translate(0 42.345)">
      <path id="Path_11038" data-name="Path 11038" d="M2290.358,3082.988l8.314.2a.964.964,0,0,0,.985-1.018l-.476-8.2a.964.964,0,0,0-.972-.907l-7.922.083a.961.961,0,0,0-.952.973l.082,7.909A.964.964,0,0,0,2290.358,3082.988Z" transform="translate(-2289.336 -3073.07)" fill="#00827e"/>
    </g>
  </g>
  <g id="Group_7997" data-name="Group 7997" transform="translate(77.92 128.598)">
    <path id="Path_11039" data-name="Path 11039" d="M1953.461,3108.039s-4.118-2.141-14.991.659l-.989,2.965,6.919,1.154,9.885-.165Z" transform="translate(-1917.039 -3059.943)" fill-rule="evenodd" fill="url(#linear-gradient-27)"/>
    <path id="Path_11040" data-name="Path 11040" d="M1831.739,3117.9l.113-3.111s-.823-1.153-1.647-.989-5.6,3.295-6.755,3.789S1825.2,3119.362,1831.739,3117.9Z" transform="translate(-1810.421 -3066.031)" fill-rule="evenodd"/>
    <path id="Path_11041" data-name="Path 11041" d="M1916.6,3144.9s-4.119-2.142-14.992.659l-.989,2.966,6.919,1.153,9.885-.165Z" transform="translate(-1882.646 -3094.336)" fill-rule="evenodd" fill="url(#linear-gradient-28)"/>
    <path id="Path_11042" data-name="Path 11042" d="M1794.875,3154.762l.113-3.111s-.824-1.153-1.648-.989-5.6,3.294-6.754,3.789S1788.337,3156.226,1794.875,3154.762Z" transform="translate(-1776.029 -3100.424)" fill-rule="evenodd"/>
    <path id="Path_11043" data-name="Path 11043" d="M2039.333,2903.106l3.507,14.37a6.734,6.734,0,0,1-.9,5.277h0a2.969,2.969,0,0,1-2.485,1.346h-11.572l-1.541-7.088a19.27,19.27,0,0,1,.081-8.542l1.456-6.139Z" transform="translate(-1999.531 -2868.754)" fill="#00827e" fill-rule="evenodd"/>
    <path id="Path_11044" data-name="Path 11044" d="M2220.284,2752.752s5.729,7.043,4.942,11.369c-.988,5.437-7.579,1.153-7.579,1.153l.629-2s3,2.66,3.49.354-3.625-5.932-3.625-5.932Z" transform="translate(-2178.424 -2729.204)" fill-rule="evenodd" fill="url(#linear-gradient-29)"/>
    <path id="Path_11045" data-name="Path 11045" d="M1634.619,2409.872c2.674-4.382,7.232-6.772,11.5-6.473a6.214,6.214,0,0,0,3.662-.929,6.523,6.523,0,0,1,6.826-.084l.018.01a3.349,3.349,0,0,0,3.206.229c3.048-1.463,9.714-.616,12.583,1.134,4.771,2.911,5.361,8.907,2.087,14.274s-12.339,7.2-17.11,4.292a9.085,9.085,0,0,1-1.785-1.426,1.5,1.5,0,0,0-2.377.255l-.031.051c-3.628,5.947-10.728,8.23-15.857,5.1S1630.991,2415.818,1634.619,2409.872Z" transform="translate(-1632.53 -2401.462)" fill-rule="evenodd"/>
    <path id="Path_11046" data-name="Path 11046" d="M2040.3,2739.078s5.282-2.713,13.314-.246c0,0-1.571,6.74-2.034,9.635l-12.552.081Z" transform="translate(-2011.774 -2715.25)" fill="#00827e" fill-rule="evenodd"/>
    <path id="Path_11047" data-name="Path 11047" d="M2033.561,2892.1l-.045,1.463s-4.445.783-13.85.466l1.3-1.52A124.361,124.361,0,0,0,2033.561,2892.1Z" transform="translate(-1993.714 -2859.211)" fill-rule="evenodd" fill="url(#linear-gradient-30)"/>
    <path id="Path_11048" data-name="Path 11048" d="M2123.282,2644.962l-.612,6.059a.961.961,0,0,0,.739,1.033,8.746,8.746,0,0,0,4.672-.061.965.965,0,0,0,.635-1l-.6-6.224Z" transform="translate(-2089.808 -2628.461)" fill-rule="evenodd" fill="url(#linear-gradient-31)"/>
    <path id="Path_11049" data-name="Path 11049" d="M2069.015,2487.189c.594,4.224,3.707,8.207,8.6,7.331,3.388-.606,4.424-3.834,3.83-8.059s-3.58-7.437-6.988-6.958S2068.421,2482.964,2069.015,2487.189Z" transform="translate(-2039.677 -2474.227)" fill-rule="evenodd" fill="url(#linear-gradient-32)"/>
    <path id="Path_11050" data-name="Path 11050" d="M2058.206,2597.992s-.762-2.384-1.782-1.333,1.382,3.533,2.17,3.516S2058.206,2597.992,2058.206,2597.992Z" transform="translate(-2027.776 -2583.324)" fill-rule="evenodd" fill="url(#linear-gradient-33)"/>
    <path id="Path_11051" data-name="Path 11051" d="M2055.594,2474.62s3.755,4.281,5.985-4.344c0,0,1.936,2.644,2.908.375,0,0,3.952,1.469,4.435-.2s-5.229-6.362-10-3.22S2055.594,2474.62,2055.594,2474.62Z" transform="translate(-2027.042 -2461.837)" fill-rule="evenodd"/>
    <path id="Path_11052" data-name="Path 11052" d="M1991.852,2757.668s-7.517,5.687-3.269,12.715c3.269,5.406,10.847-.524,10.847-.524l-2.307-2.142s-2.471,2.581-4.448.961.824-6.4.824-6.4S1993.335,2758.656,1991.852,2757.668Z" transform="translate(-1963.502 -2733.791)" fill-rule="evenodd" fill="url(#linear-gradient-34)"/>
    <g id="Group_7996" data-name="Group 7996" transform="translate(33.953 29.974)">
      <path id="Path_11053" data-name="Path 11053" d="M2139.746,2856.241l6.457.225a.748.748,0,0,0,.774-.783l-.3-6.37a.749.749,0,0,0-.748-.713h-6.155a.748.748,0,0,0-.748.748v6.146A.749.749,0,0,0,2139.746,2856.241Z" transform="translate(-2139.023 -2848.6)" fill="#fce200"/>
    </g>
    <path id="Path_11054" data-name="Path 11054" d="M2123.983,2879.07a2.027,2.027,0,0,1-1.054-2.084c.229-1.445.558-1.938,2.205-1.773s2.8,1.812.824,2.635S2123.983,2879.07,2123.983,2879.07Z" transform="translate(-2090.03 -2843.426)" fill-rule="evenodd" fill="url(#linear-gradient-35)"/>
    <path id="Path_11055" data-name="Path 11055" d="M2207.069,2870.114a4.6,4.6,0,0,0,.447-2.8c-.329-1.318-1.812-1.812-3.131-2.142s-1.118,1.213-.311,2.171S2207.115,2869.127,2207.069,2870.114Z" transform="translate(-2165.162 -2834.045)" fill-rule="evenodd" fill="url(#linear-gradient-36)"/>
  </g>
</svg>
