<svg xmlns="http://www.w3.org/2000/svg" xmlns:xlink="http://www.w3.org/1999/xlink" width="360" height="680.24" viewBox="0 0 360 680.24"><defs><style>.a{opacity:0.746;fill:url(#a);}</style><linearGradient id="a" x1="0.834" y1="0.258" x2="0.834" y2="0.962" gradientUnits="objectBoundingBox"><stop offset="0" stop-color="#fff"/><stop offset="1" stop-color="#00b3ee" stop-opacity="0.114"/></linearGradient></defs><path class="a" d="M360,680.24h0v-.008c-.668-2.682-2.478-5.939-5.234-9.417a62.416,62.416,0,0,0-10.61-10.34c-5.68-4.4-17.221-11.825-30.7-12.2-6.622-.183-14.242-.273-23.293-.273-10.85,0-22.129.123-34.07.254l-.536.006h-.013c-11.138.122-23.762.259-35.619.259-18.036,0-31.785-.313-43.268-.985-14.082-.825-24.506-2.187-31.866-4.165A73.312,73.312,0,0,1,127,634.86a47.934,47.934,0,0,1-11.13-10.312,52.637,52.637,0,0,1-6.6-11.239c-1.682-3.8-2.961-7.613-4.2-11.3-2.56-7.619-4.977-14.815-10.426-20a27.127,27.127,0,0,0-10.875-6.166,59.988,59.988,0,0,0-17.91-2.277c-18.931,0-34.477-6.475-46.208-19.246a75.407,75.407,0,0,1-12.508-19A107.447,107.447,0,0,1,0,514.568V0H360Z" transform="translate(0 0)"/></svg>