<svg xmlns="http://www.w3.org/2000/svg" width="110.007" height="117.333" viewBox="0 0 110.007 117.333"><defs><style>.a{fill:#0078a0;}.b{fill:#31978c;}.c{fill:#00a98f;}.d{fill:#93d500;}.e,.g{fill:#00b3ee;}.f{fill:#fce200;}.g{opacity:0.3;}</style></defs><g transform="translate(-51 -227.001)"><g transform="translate(51 227.001)"><path class="a" d="M147.5,56.159v68.362a5.439,5.439,0,0,1-5.441,5.441h-3.916V66.719a3.44,3.44,0,0,0-2.9-3.3,4.01,4.01,0,0,0-.733-.073H42.91A5.408,5.408,0,0,1,37.5,57.933v-.044a5.409,5.409,0,0,1,5.412-5.353H143.877A3.631,3.631,0,0,1,147.5,56.159Z" transform="translate(-37.498 -43.689)"/><path class="b" d="M107.042,63.256v.249a3.632,3.632,0,0,0-2.9-3.549A3.44,3.44,0,0,1,107.042,63.256Z" transform="translate(-6.398 -40.226)"/><path class="c" d="M43.406,68.14,86.268,47.7a1.467,1.467,0,0,1,1.955.692L98.511,69.958,54.325,91.035Z" transform="translate(-34.741 -46.013)"/><path class="d" d="M47.706,74.271l57.919-27.625a1.467,1.467,0,0,1,1.954.692l14.008,29.367L62.346,104.962Z" transform="translate(-32.734 -46.504)"/><path class="e" d="M138.142,65V128.04a3.515,3.515,0,0,1-3.637,3.388H41.9a4.413,4.413,0,0,1-4.4-4.4V56.216a5.408,5.408,0,0,0,5.412,5.412H134.5a4.01,4.01,0,0,1,.733.073A3.44,3.44,0,0,1,138.142,65Z" transform="translate(-37.498 -41.971)"/><path class="f" d="M91.089,75.108H125.04V95.1H91.089a5.452,5.452,0,0,1-5.452-5.452V80.56a5.452,5.452,0,0,1,5.452-5.452Z" transform="translate(-15.032 -33.155)"/><circle class="e" cx="4.543" cy="4.543" r="4.543" transform="translate(75.85 47.405)"/></g><ellipse class="g" cx="54.912" cy="4.224" rx="54.912" ry="4.224" transform="translate(51 335.886)"/></g></svg>